<mxfile host="Electron" agent="Mozilla/5.0 (Macintosh; Intel Mac OS X 10_15_7) AppleWebKit/537.36 (KHTML, like Gecko) draw.io/27.0.5 Chrome/134.0.6998.205 Electron/35.3.0 Safari/537.36" version="27.0.5" pages="5">
  <diagram name="ПСБСЖ as is +3m 2024-03" id="rR9UdjIYB_Jg8sXiRP1j">
    <mxGraphModel dx="1418" dy="828" grid="1" gridSize="10" guides="1" tooltips="1" connect="1" arrows="1" fold="1" page="1" pageScale="1" pageWidth="827" pageHeight="1169" background="none" math="0" shadow="0">
      <root>
        <mxCell id="p5QnvX9JTLJbmsQ0FnVN-0" />
        <mxCell id="p5QnvX9JTLJbmsQ0FnVN-1" parent="p5QnvX9JTLJbmsQ0FnVN-0" />
        <mxCell id="p5QnvX9JTLJbmsQ0FnVN-8" value="1С&amp;nbsp;" style="rounded=1;whiteSpace=wrap;html=1;shadow=0;labelBackgroundColor=none;strokeWidth=1;fontFamily=Helvetica;fontSize=80;align=right;fillColor=#d5e8d4;strokeColor=none;glass=1;verticalAlign=bottom;fontColor=#E6E6E6;" parent="p5QnvX9JTLJbmsQ0FnVN-1" vertex="1">
          <mxGeometry x="59" y="520" width="521" height="568" as="geometry" />
        </mxCell>
        <mxCell id="p5QnvX9JTLJbmsQ0FnVN-9" value="ПСБСЖ as is +3m 2024-03" style="swimlane;html=1;childLayout=stackLayout;horizontal=1;startSize=20;horizontalStack=0;rounded=0;shadow=0;labelBackgroundColor=none;strokeWidth=1;fontFamily=Verdana;fontSize=14;align=center;fillColor=#333333;fontColor=#FFFFFF;strokeColor=#BD7000;" parent="p5QnvX9JTLJbmsQ0FnVN-1" vertex="1">
          <mxGeometry x="7" y="39" width="813" height="1070" as="geometry">
            <mxRectangle x="180" y="70" width="60" height="20" as="alternateBounds" />
          </mxGeometry>
        </mxCell>
        <mxCell id="p5QnvX9JTLJbmsQ0FnVN-11" value="Фронт" style="swimlane;html=1;startSize=20;horizontal=0;" parent="p5QnvX9JTLJbmsQ0FnVN-9" vertex="1">
          <mxGeometry y="20" width="813" height="150" as="geometry" />
        </mxCell>
        <mxCell id="p5QnvX9JTLJbmsQ0FnVN-12" value="Сайт&lt;br&gt;&lt;div&gt;визитка&lt;/div&gt;&lt;div&gt;&lt;br&gt;&lt;/div&gt;&lt;div&gt;bitrix&lt;/div&gt;" style="rounded=1;whiteSpace=wrap;html=1;shadow=0;labelBackgroundColor=none;strokeWidth=3;fontFamily=Helvetica;fontSize=12;align=center;fillColor=#647687;strokeColor=#314354;fontColor=#ffffff;verticalAlign=middle;fontStyle=1;" parent="p5QnvX9JTLJbmsQ0FnVN-11" vertex="1">
          <mxGeometry x="43" y="20" width="80" height="90" as="geometry" />
        </mxCell>
        <mxCell id="p5QnvX9JTLJbmsQ0FnVN-18" value="Фронт: бизнес-логика" style="swimlane;html=1;startSize=20;horizontal=0;" parent="p5QnvX9JTLJbmsQ0FnVN-9" vertex="1">
          <mxGeometry y="170" width="813" height="150" as="geometry" />
        </mxCell>
        <mxCell id="p5QnvX9JTLJbmsQ0FnVN-19" value="&lt;span style=&quot;font-weight: 400;&quot;&gt;Авинфорс&lt;/span&gt;&lt;br style=&quot;font-weight: 400;&quot;&gt;&lt;br style=&quot;font-weight: 400;&quot;&gt;&lt;span style=&quot;font-weight: 400;&quot;&gt;b2b&lt;/span&gt;" style="rounded=1;whiteSpace=wrap;html=1;shadow=0;labelBackgroundColor=none;strokeWidth=3;fontFamily=Helvetica;fontSize=12;align=center;fillColor=#f0a30a;fontColor=#000000;strokeColor=#BD7000;fontStyle=1;verticalAlign=middle;" parent="p5QnvX9JTLJbmsQ0FnVN-18" vertex="1">
          <mxGeometry x="150" y="-130" width="130" height="260" as="geometry" />
        </mxCell>
        <mxCell id="p5QnvX9JTLJbmsQ0FnVN-28" value="Шина / Сервисы" style="swimlane;html=1;startSize=20;horizontal=0;" parent="p5QnvX9JTLJbmsQ0FnVN-9" vertex="1">
          <mxGeometry y="320" width="813" height="150" as="geometry" />
        </mxCell>
        <mxCell id="p5QnvX9JTLJbmsQ0FnVN-31" value="Опер учет" style="swimlane;html=1;startSize=20;horizontal=0;" parent="p5QnvX9JTLJbmsQ0FnVN-9" vertex="1">
          <mxGeometry y="470" width="813" height="150" as="geometry">
            <mxRectangle y="470" width="959" height="30" as="alternateBounds" />
          </mxGeometry>
        </mxCell>
        <mxCell id="p5QnvX9JTLJbmsQ0FnVN-37" value="Урег. убытков" style="swimlane;html=1;startSize=20;horizontal=0;" parent="p5QnvX9JTLJbmsQ0FnVN-9" vertex="1">
          <mxGeometry y="620" width="813" height="150" as="geometry" />
        </mxCell>
        <mxCell id="p5QnvX9JTLJbmsQ0FnVN-43" value="Фин учет" style="swimlane;html=1;startSize=20;horizontal=0;" parent="p5QnvX9JTLJbmsQ0FnVN-9" vertex="1">
          <mxGeometry y="770" width="813" height="150" as="geometry" />
        </mxCell>
        <mxCell id="p5QnvX9JTLJbmsQ0FnVN-45" value="НФО / УФО&amp;nbsp;&lt;div&gt;Хомнет&lt;/div&gt;" style="rounded=1;whiteSpace=wrap;html=1;shadow=0;labelBackgroundColor=none;strokeWidth=3;fontFamily=Helvetica;fontSize=12;align=center;fillColor=#6d8764;strokeColor=#3A5431;verticalAlign=middle;fontColor=#ffffff;" parent="p5QnvX9JTLJbmsQ0FnVN-43" vertex="1">
          <mxGeometry x="320" y="55.5" width="83" height="39" as="geometry" />
        </mxCell>
        <mxCell id="r0h_cT8BBhozYEODTi7z-16" value="781-П&lt;div&gt;Хомнет&lt;/div&gt;" style="rounded=1;whiteSpace=wrap;html=1;shadow=0;labelBackgroundColor=none;strokeWidth=3;fontFamily=Helvetica;fontSize=12;align=center;fillColor=#6d8764;strokeColor=#3A5431;verticalAlign=middle;fontColor=#ffffff;" parent="p5QnvX9JTLJbmsQ0FnVN-43" vertex="1">
          <mxGeometry x="445" y="80" width="83" height="39" as="geometry" />
        </mxCell>
        <mxCell id="8X_gqGbU6HJ3HP3bGRbb-1" value="" style="endArrow=classic;startArrow=none;html=1;fontFamily=Helvetica;fontSize=12;rounded=1;strokeWidth=3;dashed=1;dashPattern=1 1;fillColor=#60a917;strokeColor=#2D7600;entryX=0;entryY=0.5;entryDx=0;entryDy=0;startFill=0;exitX=1;exitY=0.5;exitDx=0;exitDy=0;edgeStyle=orthogonalEdgeStyle;curved=1;" parent="p5QnvX9JTLJbmsQ0FnVN-43" source="p5QnvX9JTLJbmsQ0FnVN-45" target="r0h_cT8BBhozYEODTi7z-16" edge="1">
          <mxGeometry width="50" height="50" relative="1" as="geometry">
            <mxPoint x="413" y="86" as="sourcePoint" />
            <mxPoint x="453" y="53" as="targetPoint" />
          </mxGeometry>
        </mxCell>
        <mxCell id="p5QnvX9JTLJbmsQ0FnVN-57" value="Прочее" style="swimlane;html=1;startSize=20;horizontal=0;" parent="p5QnvX9JTLJbmsQ0FnVN-9" vertex="1">
          <mxGeometry y="920" width="813" height="150" as="geometry" />
        </mxCell>
        <mxCell id="p5QnvX9JTLJbmsQ0FnVN-59" value="ЗУП" style="rounded=1;whiteSpace=wrap;html=1;shadow=0;labelBackgroundColor=none;strokeWidth=3;fontFamily=Helvetica;fontSize=12;align=center;fillColor=#6d8764;strokeColor=#3A5431;fontColor=#ffffff;verticalAlign=middle;" parent="p5QnvX9JTLJbmsQ0FnVN-57" vertex="1">
          <mxGeometry x="200" y="20" width="77" height="69" as="geometry" />
        </mxCell>
        <mxCell id="r0h_cT8BBhozYEODTi7z-19" value="Picosoft&lt;div&gt;(ЦБ)&lt;/div&gt;" style="rounded=1;whiteSpace=wrap;html=1;shadow=0;labelBackgroundColor=none;strokeWidth=3;fontFamily=Helvetica;fontSize=12;align=center;fillColor=#1ba1e2;strokeColor=#006EAF;fontColor=#ffffff;" parent="p5QnvX9JTLJbmsQ0FnVN-57" vertex="1">
          <mxGeometry x="443" y="-559" width="80" height="69" as="geometry" />
        </mxCell>
        <mxCell id="r0h_cT8BBhozYEODTi7z-23" value="Контур&lt;div&gt;(ФНС)&lt;/div&gt;" style="rounded=1;whiteSpace=wrap;html=1;shadow=0;labelBackgroundColor=none;strokeWidth=3;fontFamily=Helvetica;fontSize=12;align=center;fillColor=#1ba1e2;strokeColor=#006EAF;fontColor=#ffffff;verticalAlign=middle;" parent="p5QnvX9JTLJbmsQ0FnVN-57" vertex="1">
          <mxGeometry x="333" y="-559" width="80" height="69" as="geometry" />
        </mxCell>
        <mxCell id="r0h_cT8BBhozYEODTi7z-25" value="Почтовик" style="rounded=1;whiteSpace=wrap;html=1;shadow=0;labelBackgroundColor=none;strokeWidth=3;fontFamily=Helvetica;fontSize=12;align=center;fillColor=#1ba1e2;strokeColor=#006EAF;fontColor=#ffffff;verticalAlign=middle;" parent="p5QnvX9JTLJbmsQ0FnVN-57" vertex="1">
          <mxGeometry x="643" y="-560" width="80" height="69" as="geometry" />
        </mxCell>
        <mxCell id="r0h_cT8BBhozYEODTi7z-0" value="ЭДО" style="rounded=1;whiteSpace=wrap;html=1;shadow=0;labelBackgroundColor=none;strokeWidth=3;fontFamily=Helvetica;fontSize=12;align=center;fillColor=#6d8764;strokeColor=#3A5431;fontColor=#ffffff;verticalAlign=middle;" parent="p5QnvX9JTLJbmsQ0FnVN-57" vertex="1">
          <mxGeometry x="73" y="20.5" width="77" height="70" as="geometry" />
        </mxCell>
        <mxCell id="r0h_cT8BBhozYEODTi7z-18" value="" style="endArrow=classic;startArrow=classic;html=1;fontFamily=Helvetica;fontSize=12;rounded=1;strokeWidth=3;dashed=1;dashPattern=1 1;fillColor=#60a917;strokeColor=#2D7600;exitX=1;exitY=0.5;exitDx=0;exitDy=0;entryX=0;entryY=0.5;entryDx=0;entryDy=0;" parent="p5QnvX9JTLJbmsQ0FnVN-57" source="r0h_cT8BBhozYEODTi7z-0" target="p5QnvX9JTLJbmsQ0FnVN-59" edge="1">
          <mxGeometry width="50" height="50" relative="1" as="geometry">
            <mxPoint x="247" y="30" as="sourcePoint" />
            <mxPoint x="247" y="-8" as="targetPoint" />
          </mxGeometry>
        </mxCell>
        <mxCell id="p5QnvX9JTLJbmsQ0FnVN-32" value="1С: УСК&lt;div&gt;&lt;br&gt;&lt;/div&gt;&lt;div&gt;Аксиома&lt;/div&gt;" style="rounded=1;whiteSpace=wrap;html=1;shadow=0;labelBackgroundColor=none;strokeWidth=3;fontFamily=Helvetica;fontSize=12;align=center;fillColor=#6d8764;fontColor=#ffffff;strokeColor=#3A5431;" parent="p5QnvX9JTLJbmsQ0FnVN-1" vertex="1">
          <mxGeometry x="80" y="540" width="210" height="400" as="geometry" />
        </mxCell>
        <mxCell id="r0h_cT8BBhozYEODTi7z-1" value="" style="endArrow=classic;startArrow=classic;html=1;fontFamily=Helvetica;fontSize=12;rounded=1;strokeWidth=3;dashed=1;dashPattern=1 1;fillColor=#60a917;strokeColor=#2D7600;exitX=0.5;exitY=1;exitDx=0;exitDy=0;entryX=0.68;entryY=0.002;entryDx=0;entryDy=0;entryPerimeter=0;" parent="p5QnvX9JTLJbmsQ0FnVN-1" source="p5QnvX9JTLJbmsQ0FnVN-19" target="p5QnvX9JTLJbmsQ0FnVN-32" edge="1">
          <mxGeometry width="50" height="50" relative="1" as="geometry">
            <mxPoint x="232" y="340" as="sourcePoint" />
            <mxPoint x="240" y="450" as="targetPoint" />
          </mxGeometry>
        </mxCell>
        <mxCell id="r0h_cT8BBhozYEODTi7z-17" value="" style="endArrow=classic;startArrow=classic;html=1;fontFamily=Helvetica;fontSize=12;rounded=1;strokeWidth=3;dashed=1;dashPattern=1 1;fillColor=#60a917;strokeColor=#2D7600;exitX=0.5;exitY=0;exitDx=0;exitDy=0;entryX=0.787;entryY=1;entryDx=0;entryDy=0;entryPerimeter=0;" parent="p5QnvX9JTLJbmsQ0FnVN-1" source="p5QnvX9JTLJbmsQ0FnVN-59" target="p5QnvX9JTLJbmsQ0FnVN-32" edge="1">
          <mxGeometry width="50" height="50" relative="1" as="geometry">
            <mxPoint x="-39.799999999999955" y="800" as="sourcePoint" />
            <mxPoint x="-40" y="1011.5" as="targetPoint" />
          </mxGeometry>
        </mxCell>
        <mxCell id="r0h_cT8BBhozYEODTi7z-21" value="" style="endArrow=classic;startArrow=classic;html=1;fontFamily=Helvetica;fontSize=12;rounded=1;strokeWidth=3;dashed=1;dashPattern=1 1;fillColor=#60a917;strokeColor=#2D7600;entryX=0;entryY=0.5;entryDx=0;entryDy=0;exitX=1.004;exitY=0.86;exitDx=0;exitDy=0;exitPerimeter=0;" parent="p5QnvX9JTLJbmsQ0FnVN-1" source="p5QnvX9JTLJbmsQ0FnVN-32" target="p5QnvX9JTLJbmsQ0FnVN-45" edge="1">
          <mxGeometry width="50" height="50" relative="1" as="geometry">
            <mxPoint x="290" y="856" as="sourcePoint" />
            <mxPoint x="220" y="1022" as="targetPoint" />
          </mxGeometry>
        </mxCell>
        <mxCell id="r0h_cT8BBhozYEODTi7z-24" value="" style="endArrow=classic;startArrow=classic;html=1;fontFamily=Helvetica;fontSize=12;exitX=1;exitY=0.75;exitDx=0;exitDy=0;entryX=0.5;entryY=1;entryDx=0;entryDy=0;rounded=1;strokeWidth=3;dashed=1;dashPattern=1 1;fillColor=#60a917;strokeColor=#2D7600;" parent="p5QnvX9JTLJbmsQ0FnVN-1" source="p5QnvX9JTLJbmsQ0FnVN-32" target="r0h_cT8BBhozYEODTi7z-23" edge="1">
          <mxGeometry width="50" height="50" relative="1" as="geometry">
            <mxPoint x="424" y="920" as="sourcePoint" />
            <mxPoint x="500" y="990" as="targetPoint" />
            <Array as="points">
              <mxPoint x="380" y="840" />
            </Array>
          </mxGeometry>
        </mxCell>
        <mxCell id="lFmHKuDe8dM3KAvLqEzu-0" value="XBRL&lt;div&gt;Хомнет&lt;/div&gt;" style="rounded=1;whiteSpace=wrap;html=1;shadow=0;labelBackgroundColor=none;strokeWidth=3;fontFamily=Helvetica;fontSize=12;align=center;fillColor=#6d8764;strokeColor=#3A5431;verticalAlign=middle;fontColor=#ffffff;" parent="p5QnvX9JTLJbmsQ0FnVN-1" vertex="1">
          <mxGeometry x="452" y="832" width="83" height="39" as="geometry" />
        </mxCell>
        <mxCell id="r0h_cT8BBhozYEODTi7z-22" value="" style="endArrow=classic;startArrow=classic;html=1;fontFamily=Helvetica;fontSize=12;rounded=1;strokeWidth=3;dashed=1;dashPattern=1 1;fillColor=#60a917;strokeColor=#2D7600;exitX=0.5;exitY=1;exitDx=0;exitDy=0;entryX=0.5;entryY=0;entryDx=0;entryDy=0;" parent="p5QnvX9JTLJbmsQ0FnVN-1" source="r0h_cT8BBhozYEODTi7z-19" target="lFmHKuDe8dM3KAvLqEzu-0" edge="1">
          <mxGeometry width="50" height="50" relative="1" as="geometry">
            <mxPoint x="489.53999999999996" y="480" as="sourcePoint" />
            <mxPoint x="440.00226415094335" y="658" as="targetPoint" />
          </mxGeometry>
        </mxCell>
        <mxCell id="8X_gqGbU6HJ3HP3bGRbb-0" value="" style="endArrow=classic;startArrow=none;html=1;fontFamily=Helvetica;fontSize=12;rounded=1;strokeWidth=3;dashed=1;dashPattern=1 1;fillColor=#60a917;strokeColor=#2D7600;entryX=-0.024;entryY=0.515;entryDx=0;entryDy=0;exitX=1;exitY=0.5;exitDx=0;exitDy=0;startFill=0;entryPerimeter=0;edgeStyle=orthogonalEdgeStyle;curved=1;" parent="p5QnvX9JTLJbmsQ0FnVN-1" source="p5QnvX9JTLJbmsQ0FnVN-45" target="lFmHKuDe8dM3KAvLqEzu-0" edge="1">
          <mxGeometry width="50" height="50" relative="1" as="geometry">
            <mxPoint x="414" y="884" as="sourcePoint" />
            <mxPoint x="456" y="851.5" as="targetPoint" />
          </mxGeometry>
        </mxCell>
        <mxCell id="FbFhmBaJw0n7DWWMKwA7-0" value="Ф-162 / XBRL&lt;div&gt;ИП Тарасов&lt;/div&gt;" style="rounded=1;whiteSpace=wrap;html=1;shadow=0;labelBackgroundColor=none;strokeWidth=3;fontFamily=Helvetica;fontSize=12;align=center;fillColor=#d5e8d4;strokeColor=#82b366;verticalAlign=middle;fontColor=default;" parent="p5QnvX9JTLJbmsQ0FnVN-1" vertex="1">
          <mxGeometry x="136.75" y="832" width="96.5" height="39" as="geometry" />
        </mxCell>
      </root>
    </mxGraphModel>
  </diagram>
  <diagram name="ПСБС as is +3m 2024-03" id="kyCTaZfy0unKtCGm61V2">
    <mxGraphModel dx="1434" dy="844" grid="1" gridSize="10" guides="1" tooltips="1" connect="1" arrows="1" fold="1" page="1" pageScale="1" pageWidth="827" pageHeight="1169" background="none" math="0" shadow="0">
      <root>
        <mxCell id="SR7dJFl_h98uN44ZDj9O-0" />
        <mxCell id="SR7dJFl_h98uN44ZDj9O-1" parent="SR7dJFl_h98uN44ZDj9O-0" />
        <mxCell id="74vs3m-IRZQvYzPqQEYV-4" value="" style="endArrow=none;startArrow=classic;html=1;fontFamily=Helvetica;fontSize=12;rounded=1;strokeWidth=3;dashed=1;dashPattern=1 1;fillColor=#60a917;strokeColor=#2D7600;exitX=0.032;exitY=0.375;exitDx=0;exitDy=0;startFill=1;endFill=0;entryX=1;entryY=0.5;entryDx=0;entryDy=0;exitPerimeter=0;" parent="SR7dJFl_h98uN44ZDj9O-1" source="SR7dJFl_h98uN44ZDj9O-6" target="74vs3m-IRZQvYzPqQEYV-3" edge="1">
          <mxGeometry width="50" height="50" relative="1" as="geometry">
            <mxPoint x="144" y="260" as="sourcePoint" />
            <mxPoint x="60" y="260" as="targetPoint" />
          </mxGeometry>
        </mxCell>
        <mxCell id="SR7dJFl_h98uN44ZDj9O-3" value="1C&amp;nbsp;" style="rounded=1;whiteSpace=wrap;html=1;shadow=0;labelBackgroundColor=none;strokeWidth=1;fontFamily=Helvetica;fontSize=50;align=right;fillColor=#d5e8d4;strokeColor=none;glass=1;verticalAlign=bottom;fontColor=#E6E6E6;" parent="SR7dJFl_h98uN44ZDj9O-1" vertex="1">
          <mxGeometry x="139" y="520" width="341" height="568" as="geometry" />
        </mxCell>
        <mxCell id="SR7dJFl_h98uN44ZDj9O-4" value="ПСБС as is +3m 2024-03" style="swimlane;html=1;childLayout=stackLayout;horizontal=1;startSize=20;horizontalStack=0;rounded=0;shadow=0;labelBackgroundColor=none;strokeWidth=1;fontFamily=Verdana;fontSize=14;align=center;fillColor=#333333;fontColor=#FFFFFF;strokeColor=#BD7000;" parent="SR7dJFl_h98uN44ZDj9O-1" vertex="1">
          <mxGeometry x="7" y="39" width="813" height="1071" as="geometry">
            <mxRectangle x="180" y="70" width="60" height="20" as="alternateBounds" />
          </mxGeometry>
        </mxCell>
        <mxCell id="SR7dJFl_h98uN44ZDj9O-5" value="Фронт" style="swimlane;html=1;startSize=20;horizontal=0;" parent="SR7dJFl_h98uN44ZDj9O-4" vertex="1">
          <mxGeometry y="20" width="813" height="150" as="geometry" />
        </mxCell>
        <mxCell id="SR7dJFl_h98uN44ZDj9O-6" value="Сайт&lt;br&gt;&lt;div&gt;b2c&lt;/div&gt;&lt;div&gt;&lt;br&gt;&lt;/div&gt;&lt;div&gt;bitrix&lt;/div&gt;" style="rounded=1;whiteSpace=wrap;html=1;shadow=0;labelBackgroundColor=none;strokeWidth=3;fontFamily=Helvetica;fontSize=12;align=center;fillColor=#647687;strokeColor=#314354;fontColor=#ffffff;verticalAlign=top;fontStyle=1;" parent="SR7dJFl_h98uN44ZDj9O-5" vertex="1">
          <mxGeometry x="319" y="20" width="124" height="120" as="geometry" />
        </mxCell>
        <mxCell id="yRR4LDYn5sWy--kmtEQJ-1" value="Портал&lt;div&gt;&lt;br&gt;&lt;/div&gt;&lt;div&gt;bitrix&lt;/div&gt;" style="rounded=1;whiteSpace=wrap;html=1;shadow=0;labelBackgroundColor=none;strokeWidth=3;fontFamily=Helvetica;fontSize=12;align=center;fillColor=#647687;strokeColor=#314354;fontColor=#ffffff;verticalAlign=middle;fontStyle=1;" parent="SR7dJFl_h98uN44ZDj9O-5" vertex="1">
          <mxGeometry x="36" y="920" width="80" height="90" as="geometry" />
        </mxCell>
        <mxCell id="S0XdMFUr-okfkaE0cwj7-0" value="&lt;span style=&quot;font-weight: 400;&quot;&gt;ЛКК ДМС&lt;/span&gt;" style="rounded=1;whiteSpace=wrap;html=1;shadow=0;labelBackgroundColor=none;strokeWidth=2;fontFamily=Helvetica;fontSize=12;align=center;fillColor=#76608a;strokeColor=#432D57;fontStyle=1;verticalAlign=middle;dashed=1;fontColor=#ffffff;" parent="SR7dJFl_h98uN44ZDj9O-5" vertex="1">
          <mxGeometry x="364.5" y="95" width="33" height="45" as="geometry" />
        </mxCell>
        <mxCell id="SR7dJFl_h98uN44ZDj9O-7" value="Фронт: бизнес-логика" style="swimlane;html=1;startSize=20;horizontal=0;" parent="SR7dJFl_h98uN44ZDj9O-4" vertex="1">
          <mxGeometry y="170" width="813" height="150" as="geometry" />
        </mxCell>
        <mxCell id="05y_ZQFqugzJBRrf_HZ6-0" value="&lt;span style=&quot;font-weight: 400;&quot;&gt;Авинфорс&lt;/span&gt;&lt;br style=&quot;font-weight: 400;&quot;&gt;&lt;br style=&quot;font-weight: 400;&quot;&gt;&lt;span style=&quot;font-weight: 400;&quot;&gt;b2b&lt;/span&gt;" style="rounded=1;whiteSpace=wrap;html=1;shadow=0;labelBackgroundColor=none;strokeWidth=3;fontFamily=Helvetica;fontSize=12;align=center;fillColor=#f0a30a;fontColor=#000000;strokeColor=#BD7000;fontStyle=1;verticalAlign=middle;dashed=1;" parent="SR7dJFl_h98uN44ZDj9O-7" vertex="1">
          <mxGeometry x="478" y="-130" width="130" height="260" as="geometry" />
        </mxCell>
        <mxCell id="SR7dJFl_h98uN44ZDj9O-8" value="b2b" style="rounded=1;whiteSpace=wrap;html=1;shadow=0;labelBackgroundColor=none;strokeWidth=3;fontFamily=Helvetica;fontSize=12;align=center;fillColor=#647687;fontColor=#ffffff;strokeColor=#314354;fontStyle=1;verticalAlign=middle;" parent="SR7dJFl_h98uN44ZDj9O-7" vertex="1">
          <mxGeometry x="150" y="-130" width="130" height="260" as="geometry" />
        </mxCell>
        <mxCell id="SR7dJFl_h98uN44ZDj9O-9" value="Шина / Сервисы" style="swimlane;html=1;startSize=20;horizontal=0;" parent="SR7dJFl_h98uN44ZDj9O-4" vertex="1">
          <mxGeometry y="320" width="813" height="150" as="geometry" />
        </mxCell>
        <mxCell id="yRR4LDYn5sWy--kmtEQJ-3" value="КПК&lt;div&gt;(ПОД ФТ)&lt;/div&gt;" style="rounded=1;whiteSpace=wrap;html=1;shadow=0;labelBackgroundColor=none;strokeWidth=3;fontFamily=Helvetica;fontSize=12;align=center;fillColor=#1ba1e2;strokeColor=#006EAF;fontColor=#ffffff;verticalAlign=middle;" parent="SR7dJFl_h98uN44ZDj9O-9" vertex="1">
          <mxGeometry x="134" y="20" width="80" height="49.5" as="geometry" />
        </mxCell>
        <mxCell id="yRR4LDYn5sWy--kmtEQJ-4" value="Rabbit MQ" style="rounded=1;whiteSpace=wrap;html=1;shadow=0;labelBackgroundColor=none;strokeWidth=3;fontFamily=Helvetica;fontSize=12;align=center;fillColor=#1ba1e2;strokeColor=#006EAF;fontColor=#ffffff;verticalAlign=middle;" parent="SR7dJFl_h98uN44ZDj9O-9" vertex="1">
          <mxGeometry x="110" y="107" width="130" height="20" as="geometry" />
        </mxCell>
        <mxCell id="SR7dJFl_h98uN44ZDj9O-17" value="Picosoft&lt;div&gt;(ЦБ)&lt;/div&gt;" style="rounded=1;whiteSpace=wrap;html=1;shadow=0;labelBackgroundColor=none;strokeWidth=3;fontFamily=Helvetica;fontSize=12;align=center;fillColor=#1ba1e2;strokeColor=#006EAF;fontColor=#ffffff;" parent="SR7dJFl_h98uN44ZDj9O-9" vertex="1">
          <mxGeometry x="614" y="20.5" width="80" height="49" as="geometry" />
        </mxCell>
        <mxCell id="SR7dJFl_h98uN44ZDj9O-18" value="Контур&lt;div&gt;(ФНС)&lt;/div&gt;" style="rounded=1;whiteSpace=wrap;html=1;shadow=0;labelBackgroundColor=none;strokeWidth=3;fontFamily=Helvetica;fontSize=12;align=center;fillColor=#1ba1e2;strokeColor=#006EAF;fontColor=#ffffff;verticalAlign=middle;" parent="SR7dJFl_h98uN44ZDj9O-9" vertex="1">
          <mxGeometry x="563" y="81" width="80" height="49.5" as="geometry" />
        </mxCell>
        <mxCell id="yRR4LDYn5sWy--kmtEQJ-8" value="" style="endArrow=classic;startArrow=classic;html=1;fontFamily=Helvetica;fontSize=12;rounded=1;strokeWidth=3;dashed=1;dashPattern=1 1;fillColor=#60a917;strokeColor=#2D7600;exitX=0.5;exitY=1;exitDx=0;exitDy=0;entryX=0.5;entryY=0;entryDx=0;entryDy=0;" parent="SR7dJFl_h98uN44ZDj9O-9" source="yRR4LDYn5sWy--kmtEQJ-3" target="yRR4LDYn5sWy--kmtEQJ-4" edge="1">
          <mxGeometry width="50" height="50" relative="1" as="geometry">
            <mxPoint x="273" y="81" as="sourcePoint" />
            <mxPoint x="323" y="91" as="targetPoint" />
          </mxGeometry>
        </mxCell>
        <mxCell id="S0XdMFUr-okfkaE0cwj7-5" value="WSO2" style="rounded=1;whiteSpace=wrap;html=1;shadow=0;labelBackgroundColor=none;strokeWidth=3;fontFamily=Helvetica;fontSize=12;align=center;fillColor=#1ba1e2;strokeColor=#006EAF;fontColor=#ffffff;" parent="SR7dJFl_h98uN44ZDj9O-9" vertex="1">
          <mxGeometry x="43" y="20" width="60" height="49" as="geometry" />
        </mxCell>
        <mxCell id="SR7dJFl_h98uN44ZDj9O-10" value="Опер учет" style="swimlane;html=1;startSize=20;horizontal=0;fontColor=#000000;" parent="SR7dJFl_h98uN44ZDj9O-4" vertex="1">
          <mxGeometry y="470" width="813" height="150" as="geometry">
            <mxRectangle y="470" width="813" height="30" as="alternateBounds" />
          </mxGeometry>
        </mxCell>
        <mxCell id="yRR4LDYn5sWy--kmtEQJ-7" value="" style="endArrow=classic;startArrow=classic;html=1;fontFamily=Helvetica;fontSize=12;rounded=1;strokeWidth=3;dashed=1;dashPattern=1 1;fillColor=#60a917;strokeColor=#2D7600;entryX=0.065;entryY=0.009;entryDx=0;entryDy=0;entryPerimeter=0;" parent="SR7dJFl_h98uN44ZDj9O-10" target="SR7dJFl_h98uN44ZDj9O-22" edge="1">
          <mxGeometry width="50" height="50" relative="1" as="geometry">
            <mxPoint x="173" y="-20" as="sourcePoint" />
            <mxPoint x="173" y="250" as="targetPoint" />
          </mxGeometry>
        </mxCell>
        <mxCell id="SR7dJFl_h98uN44ZDj9O-11" value="Урег. убытков" style="swimlane;html=1;startSize=20;horizontal=0;" parent="SR7dJFl_h98uN44ZDj9O-4" vertex="1">
          <mxGeometry y="620" width="813" height="150" as="geometry" />
        </mxCell>
        <mxCell id="S0XdMFUr-okfkaE0cwj7-4" value="Юрайт" style="rounded=1;whiteSpace=wrap;html=1;shadow=0;labelBackgroundColor=none;strokeWidth=3;fontFamily=Helvetica;fontSize=12;align=center;fillColor=#76608a;strokeColor=#432D57;fontStyle=1;verticalAlign=middle;fontColor=#ffffff;" parent="SR7dJFl_h98uN44ZDj9O-11" vertex="1">
          <mxGeometry x="34" y="21" width="86" height="50" as="geometry" />
        </mxCell>
        <mxCell id="SR7dJFl_h98uN44ZDj9O-12" value="Фин учет" style="swimlane;html=1;startSize=20;horizontal=0;" parent="SR7dJFl_h98uN44ZDj9O-4" vertex="1">
          <mxGeometry y="770" width="813" height="150" as="geometry" />
        </mxCell>
        <mxCell id="SR7dJFl_h98uN44ZDj9O-13" value="ИТАН" style="rounded=1;whiteSpace=wrap;html=1;shadow=0;labelBackgroundColor=none;strokeWidth=3;fontFamily=Helvetica;fontSize=12;align=center;fillColor=#d5e8d4;strokeColor=#82b366;verticalAlign=middle;" parent="SR7dJFl_h98uN44ZDj9O-12" vertex="1">
          <mxGeometry x="365" y="26" width="83" height="39" as="geometry" />
        </mxCell>
        <mxCell id="gpxdwnz0OwyZ01cY02ew-0" value="" style="endArrow=classic;startArrow=classic;html=1;fontFamily=Helvetica;fontSize=12;exitX=0.277;exitY=1.021;exitDx=0;exitDy=0;entryX=1;entryY=0.75;entryDx=0;entryDy=0;rounded=1;strokeWidth=3;dashed=1;dashPattern=1 1;fillColor=#60a917;strokeColor=#2D7600;exitPerimeter=0;" parent="SR7dJFl_h98uN44ZDj9O-4" source="SR7dJFl_h98uN44ZDj9O-6" target="SR7dJFl_h98uN44ZDj9O-8" edge="1">
          <mxGeometry width="50" height="50" relative="1" as="geometry">
            <mxPoint x="133" y="230" as="sourcePoint" />
            <mxPoint x="209" y="300" as="targetPoint" />
            <Array as="points">
              <mxPoint x="353" y="235" />
            </Array>
          </mxGeometry>
        </mxCell>
        <mxCell id="yRR4LDYn5sWy--kmtEQJ-15" value="" style="endArrow=classic;startArrow=classic;html=1;fontFamily=Helvetica;fontSize=12;exitX=0.75;exitY=1;exitDx=0;exitDy=0;entryX=0;entryY=0.75;entryDx=0;entryDy=0;rounded=1;strokeWidth=3;dashed=1;dashPattern=1 1;fillColor=#e51400;strokeColor=#B20000;align=center;verticalAlign=middle;fontColor=default;labelBackgroundColor=default;startSize=8;endSize=8;curved=0;" parent="SR7dJFl_h98uN44ZDj9O-4" source="SR7dJFl_h98uN44ZDj9O-6" target="05y_ZQFqugzJBRrf_HZ6-0" edge="1">
          <mxGeometry width="50" height="50" relative="1" as="geometry">
            <mxPoint x="356" y="140" as="sourcePoint" />
            <mxPoint x="290" y="196" as="targetPoint" />
            <Array as="points">
              <mxPoint x="413" y="235" />
            </Array>
          </mxGeometry>
        </mxCell>
        <mxCell id="SR7dJFl_h98uN44ZDj9O-15" value="Прочее" style="swimlane;html=1;startSize=20;horizontal=0;" parent="SR7dJFl_h98uN44ZDj9O-4" vertex="1">
          <mxGeometry y="920" width="813" height="150" as="geometry" />
        </mxCell>
        <mxCell id="SR7dJFl_h98uN44ZDj9O-16" value="ЗУП" style="rounded=1;whiteSpace=wrap;html=1;shadow=0;labelBackgroundColor=none;strokeWidth=3;fontFamily=Helvetica;fontSize=12;align=center;fillColor=#6d8764;strokeColor=#3A5431;fontColor=#ffffff;verticalAlign=middle;" parent="SR7dJFl_h98uN44ZDj9O-15" vertex="1">
          <mxGeometry x="175" y="21" width="77" height="69" as="geometry" />
        </mxCell>
        <mxCell id="SR7dJFl_h98uN44ZDj9O-20" value="ЭДО" style="rounded=1;whiteSpace=wrap;html=1;shadow=0;labelBackgroundColor=none;strokeWidth=3;fontFamily=Helvetica;fontSize=12;align=center;fillColor=#6d8764;strokeColor=#3A5431;fontColor=#ffffff;verticalAlign=middle;" parent="SR7dJFl_h98uN44ZDj9O-15" vertex="1">
          <mxGeometry x="305" y="21" width="77" height="70" as="geometry" />
        </mxCell>
        <mxCell id="SR7dJFl_h98uN44ZDj9O-21" value="" style="endArrow=none;startArrow=classic;html=1;fontFamily=Helvetica;fontSize=12;rounded=1;strokeWidth=3;dashed=1;dashPattern=1 1;fillColor=#60a917;strokeColor=#2D7600;exitX=0;exitY=0.5;exitDx=0;exitDy=0;entryX=1;entryY=0.5;entryDx=0;entryDy=0;startFill=1;endFill=0;" parent="SR7dJFl_h98uN44ZDj9O-15" source="SR7dJFl_h98uN44ZDj9O-20" target="SR7dJFl_h98uN44ZDj9O-16" edge="1">
          <mxGeometry width="50" height="50" relative="1" as="geometry">
            <mxPoint x="327" y="30" as="sourcePoint" />
            <mxPoint x="233" y="54" as="targetPoint" />
          </mxGeometry>
        </mxCell>
        <mxCell id="yRR4LDYn5sWy--kmtEQJ-14" value="Внешний ЭДО&lt;div&gt;Диадок&lt;/div&gt;" style="rounded=1;whiteSpace=wrap;html=1;shadow=0;labelBackgroundColor=none;strokeWidth=3;fontFamily=Helvetica;fontSize=12;align=center;fillColor=#1ba1e2;strokeColor=#006EAF;fontColor=#ffffff;verticalAlign=middle;" parent="SR7dJFl_h98uN44ZDj9O-15" vertex="1">
          <mxGeometry x="643" y="21" width="100" height="71" as="geometry" />
        </mxCell>
        <mxCell id="S0XdMFUr-okfkaE0cwj7-2" value="" style="endArrow=none;startArrow=classic;html=1;fontFamily=Helvetica;fontSize=12;rounded=1;strokeWidth=3;dashed=1;dashPattern=1 1;fillColor=#60a917;strokeColor=#2D7600;exitX=1.017;exitY=0.398;exitDx=0;exitDy=0;entryX=0;entryY=0.5;entryDx=0;entryDy=0;startFill=1;endFill=0;exitPerimeter=0;" parent="SR7dJFl_h98uN44ZDj9O-4" source="yRR4LDYn5sWy--kmtEQJ-1" target="SR7dJFl_h98uN44ZDj9O-16" edge="1">
          <mxGeometry width="50" height="50" relative="1" as="geometry">
            <mxPoint x="293" y="986" as="sourcePoint" />
            <mxPoint x="240" y="986" as="targetPoint" />
          </mxGeometry>
        </mxCell>
        <mxCell id="S0XdMFUr-okfkaE0cwj7-6" value="" style="endArrow=classic;startArrow=classic;html=1;fontFamily=Helvetica;fontSize=12;exitX=0.5;exitY=0;exitDx=0;exitDy=0;entryX=-0.023;entryY=0.893;entryDx=0;entryDy=0;rounded=1;strokeWidth=3;dashed=1;dashPattern=1 1;fillColor=#60a917;strokeColor=#2D7600;entryPerimeter=0;" parent="SR7dJFl_h98uN44ZDj9O-4" source="S0XdMFUr-okfkaE0cwj7-5" target="SR7dJFl_h98uN44ZDj9O-8" edge="1">
          <mxGeometry width="50" height="50" relative="1" as="geometry">
            <mxPoint x="363" y="173" as="sourcePoint" />
            <mxPoint x="290" y="245" as="targetPoint" />
            <Array as="points">
              <mxPoint x="73" y="272" />
            </Array>
          </mxGeometry>
        </mxCell>
        <mxCell id="SR7dJFl_h98uN44ZDj9O-22" value="УФСО" style="rounded=1;whiteSpace=wrap;html=1;shadow=0;labelBackgroundColor=none;strokeWidth=3;fontFamily=Helvetica;fontSize=12;align=center;fillColor=#6d8764;fontColor=#ffffff;strokeColor=#3A5431;" parent="SR7dJFl_h98uN44ZDj9O-1" vertex="1">
          <mxGeometry x="160" y="830" width="300" height="110" as="geometry" />
        </mxCell>
        <mxCell id="SR7dJFl_h98uN44ZDj9O-23" value="" style="endArrow=classic;startArrow=classic;html=1;fontFamily=Helvetica;fontSize=12;rounded=1;strokeWidth=3;dashed=1;dashPattern=1 1;fillColor=#60a917;strokeColor=#2D7600;exitX=0.828;exitY=1.009;exitDx=0;exitDy=0;entryX=0.292;entryY=0.004;entryDx=0;entryDy=0;entryPerimeter=0;exitPerimeter=0;" parent="SR7dJFl_h98uN44ZDj9O-1" source="SR7dJFl_h98uN44ZDj9O-8" target="snwNEF9yDEF-lSMQTjwT-0" edge="1">
          <mxGeometry width="50" height="50" relative="1" as="geometry">
            <mxPoint x="301" y="370" as="sourcePoint" />
            <mxPoint x="230" y="480" as="targetPoint" />
          </mxGeometry>
        </mxCell>
        <mxCell id="SR7dJFl_h98uN44ZDj9O-24" value="XBRL / 781-П" style="rounded=1;whiteSpace=wrap;html=1;shadow=0;labelBackgroundColor=none;strokeWidth=3;fontFamily=Helvetica;fontSize=12;align=center;fillColor=#d5e8d4;strokeColor=#82b366;verticalAlign=middle;fontColor=default;" parent="SR7dJFl_h98uN44ZDj9O-1" vertex="1">
          <mxGeometry x="365" y="892" width="83" height="39" as="geometry" />
        </mxCell>
        <mxCell id="SR7dJFl_h98uN44ZDj9O-25" value="" style="endArrow=classic;startArrow=classic;html=1;fontFamily=Helvetica;fontSize=12;rounded=1;strokeWidth=3;dashed=1;dashPattern=1 1;fillColor=#60a917;strokeColor=#2D7600;exitX=0.5;exitY=0;exitDx=0;exitDy=0;entryX=0.199;entryY=1.003;entryDx=0;entryDy=0;entryPerimeter=0;" parent="SR7dJFl_h98uN44ZDj9O-1" source="SR7dJFl_h98uN44ZDj9O-16" target="SR7dJFl_h98uN44ZDj9O-22" edge="1">
          <mxGeometry width="50" height="50" relative="1" as="geometry">
            <mxPoint x="40.200000000000045" y="800" as="sourcePoint" />
            <mxPoint x="40" y="1011.5" as="targetPoint" />
          </mxGeometry>
        </mxCell>
        <mxCell id="snwNEF9yDEF-lSMQTjwT-0" value="УЦС" style="rounded=1;whiteSpace=wrap;html=1;shadow=0;labelBackgroundColor=none;strokeWidth=3;fontFamily=Helvetica;fontSize=12;align=center;fillColor=#6d8764;fontColor=#ffffff;strokeColor=#3A5431;" parent="SR7dJFl_h98uN44ZDj9O-1" vertex="1">
          <mxGeometry x="205" y="540" width="210" height="240" as="geometry" />
        </mxCell>
        <mxCell id="yRR4LDYn5sWy--kmtEQJ-0" value="" style="endArrow=classic;startArrow=classic;html=1;fontFamily=Helvetica;fontSize=12;rounded=1;strokeWidth=3;dashed=1;dashPattern=1 1;fillColor=#60a917;strokeColor=#2D7600;exitX=0.5;exitY=0;exitDx=0;exitDy=0;entryX=0.5;entryY=1;entryDx=0;entryDy=0;" parent="SR7dJFl_h98uN44ZDj9O-1" source="SR7dJFl_h98uN44ZDj9O-22" target="snwNEF9yDEF-lSMQTjwT-0" edge="1">
          <mxGeometry width="50" height="50" relative="1" as="geometry">
            <mxPoint x="310" y="820" as="sourcePoint" />
            <mxPoint x="325" y="780" as="targetPoint" />
          </mxGeometry>
        </mxCell>
        <mxCell id="yRR4LDYn5sWy--kmtEQJ-5" value="" style="endArrow=classic;startArrow=classic;html=1;fontFamily=Helvetica;fontSize=12;rounded=1;strokeWidth=3;dashed=1;dashPattern=1 1;fillColor=#60a917;strokeColor=#2D7600;entryX=0.121;entryY=-0.004;entryDx=0;entryDy=0;entryPerimeter=0;" parent="SR7dJFl_h98uN44ZDj9O-1" target="snwNEF9yDEF-lSMQTjwT-0" edge="1">
          <mxGeometry width="50" height="50" relative="1" as="geometry">
            <mxPoint x="230" y="490" as="sourcePoint" />
            <mxPoint x="311" y="550" as="targetPoint" />
          </mxGeometry>
        </mxCell>
        <mxCell id="yRR4LDYn5sWy--kmtEQJ-9" value="&lt;span style=&quot;font-weight: 400;&quot;&gt;ИТ ДМС&lt;/span&gt;" style="rounded=1;whiteSpace=wrap;html=1;shadow=0;labelBackgroundColor=none;strokeWidth=3;fontFamily=Helvetica;fontSize=12;align=center;fillColor=#76608a;strokeColor=#432D57;fontStyle=1;verticalAlign=middle;fontColor=#ffffff;" parent="SR7dJFl_h98uN44ZDj9O-1" vertex="1">
          <mxGeometry x="499" y="610" width="100" height="100" as="geometry" />
        </mxCell>
        <mxCell id="yRR4LDYn5sWy--kmtEQJ-13" value="" style="endArrow=classic;startArrow=classic;html=1;fontFamily=Helvetica;fontSize=12;rounded=1;strokeWidth=3;dashed=1;dashPattern=1 1;fillColor=#e51400;strokeColor=#B20000;startSize=8;endSize=8;curved=0;exitX=0.75;exitY=0;exitDx=0;exitDy=0;entryX=0.5;entryY=1;entryDx=0;entryDy=0;" parent="SR7dJFl_h98uN44ZDj9O-1" source="snwNEF9yDEF-lSMQTjwT-0" target="05y_ZQFqugzJBRrf_HZ6-0" edge="1">
          <mxGeometry width="50" height="50" relative="1" as="geometry">
            <mxPoint x="383" y="618" as="sourcePoint" />
            <mxPoint x="560" y="340" as="targetPoint" />
            <Array as="points">
              <mxPoint x="550" y="400" />
            </Array>
          </mxGeometry>
        </mxCell>
        <mxCell id="yRR4LDYn5sWy--kmtEQJ-17" value="" style="endArrow=classic;startArrow=classic;html=1;fontFamily=Helvetica;fontSize=12;exitX=0.5;exitY=1;exitDx=0;exitDy=0;entryX=0.5;entryY=0;entryDx=0;entryDy=0;rounded=1;strokeWidth=3;dashed=1;dashPattern=1 1;fillColor=#e51400;strokeColor=#B20000;align=center;verticalAlign=middle;fontColor=default;labelBackgroundColor=default;startSize=8;endSize=8;curved=0;" parent="SR7dJFl_h98uN44ZDj9O-1" source="SR7dJFl_h98uN44ZDj9O-6" target="yRR4LDYn5sWy--kmtEQJ-9" edge="1">
          <mxGeometry width="50" height="50" relative="1" as="geometry">
            <mxPoint x="429" y="179" as="sourcePoint" />
            <mxPoint x="504" y="284" as="targetPoint" />
            <Array as="points">
              <mxPoint x="390" y="400" />
            </Array>
          </mxGeometry>
        </mxCell>
        <mxCell id="I-b_-tySnP6Fp9Gjpo1O-0" value="РСА" style="rounded=1;whiteSpace=wrap;html=1;shadow=0;labelBackgroundColor=none;strokeWidth=3;fontFamily=Helvetica;fontSize=12;align=center;fillColor=#e51400;strokeColor=#B20000;fontColor=#ffffff;verticalAlign=middle;fontStyle=1;horizontal=0;" parent="SR7dJFl_h98uN44ZDj9O-1" vertex="1">
          <mxGeometry x="693" y="540" width="31" height="240" as="geometry" />
        </mxCell>
        <mxCell id="I-b_-tySnP6Fp9Gjpo1O-1" value="НСИС" style="rounded=1;whiteSpace=wrap;html=1;shadow=0;labelBackgroundColor=none;strokeWidth=3;fontFamily=Helvetica;fontSize=12;align=center;fillColor=#e51400;strokeColor=#B20000;fontColor=#ffffff;verticalAlign=middle;fontStyle=1;horizontal=0;" parent="SR7dJFl_h98uN44ZDj9O-1" vertex="1">
          <mxGeometry x="733" y="540" width="31" height="240" as="geometry" />
        </mxCell>
        <mxCell id="I-b_-tySnP6Fp9Gjpo1O-2" value="АИС Жилье" style="rounded=1;whiteSpace=wrap;html=1;shadow=0;labelBackgroundColor=none;strokeWidth=3;fontFamily=Helvetica;fontSize=12;align=center;fillColor=#e51400;strokeColor=#B20000;fontColor=#ffffff;verticalAlign=middle;fontStyle=1;horizontal=0;" parent="SR7dJFl_h98uN44ZDj9O-1" vertex="1">
          <mxGeometry x="773" y="540" width="31" height="240" as="geometry" />
        </mxCell>
        <mxCell id="I-b_-tySnP6Fp9Gjpo1O-3" value="" style="endArrow=classic;startArrow=classic;html=1;fontFamily=Helvetica;fontSize=12;rounded=1;strokeWidth=3;dashed=1;dashPattern=1 1;fillColor=#60a917;strokeColor=#2D7600;exitX=1.007;exitY=0.789;exitDx=0;exitDy=0;entryX=0.058;entryY=0.789;entryDx=0;entryDy=0;exitPerimeter=0;entryPerimeter=0;" parent="SR7dJFl_h98uN44ZDj9O-1" edge="1">
          <mxGeometry width="50" height="50" relative="1" as="geometry">
            <mxPoint x="416.47" y="738.3600000000001" as="sourcePoint" />
            <mxPoint x="694.798" y="738.3600000000001" as="targetPoint" />
          </mxGeometry>
        </mxCell>
        <mxCell id="I-b_-tySnP6Fp9Gjpo1O-4" value="" style="endArrow=classic;startArrow=classic;html=1;fontFamily=Helvetica;fontSize=12;rounded=1;strokeWidth=3;dashed=1;dashPattern=1 1;fillColor=#60a917;strokeColor=#B20000;exitX=1.007;exitY=0.789;exitDx=0;exitDy=0;entryX=-0.019;entryY=0.87;entryDx=0;entryDy=0;exitPerimeter=0;entryPerimeter=0;" parent="SR7dJFl_h98uN44ZDj9O-1" target="I-b_-tySnP6Fp9Gjpo1O-1" edge="1">
          <mxGeometry width="50" height="50" relative="1" as="geometry">
            <mxPoint x="416.47" y="748.3600000000001" as="sourcePoint" />
            <mxPoint x="694.798" y="748.3600000000001" as="targetPoint" />
          </mxGeometry>
        </mxCell>
        <mxCell id="I-b_-tySnP6Fp9Gjpo1O-5" value="" style="endArrow=classic;startArrow=classic;html=1;fontFamily=Helvetica;fontSize=12;rounded=1;strokeWidth=3;dashed=1;dashPattern=1 1;fillColor=#60a917;strokeColor=#2D7600;exitX=1.007;exitY=0.789;exitDx=0;exitDy=0;entryX=-0.002;entryY=0.908;entryDx=0;entryDy=0;exitPerimeter=0;entryPerimeter=0;" parent="SR7dJFl_h98uN44ZDj9O-1" target="I-b_-tySnP6Fp9Gjpo1O-2" edge="1">
          <mxGeometry width="50" height="50" relative="1" as="geometry">
            <mxPoint x="415.47" y="758.3600000000001" as="sourcePoint" />
            <mxPoint x="731" y="759" as="targetPoint" />
          </mxGeometry>
        </mxCell>
        <mxCell id="I-b_-tySnP6Fp9Gjpo1O-6" value="" style="endArrow=classic;startArrow=classic;html=1;fontFamily=Helvetica;fontSize=12;rounded=1;strokeWidth=3;dashed=1;dashPattern=1 1;fillColor=#60a917;strokeColor=#2D7600;exitX=1.007;exitY=0.789;exitDx=0;exitDy=0;entryX=-0.097;entryY=0.047;entryDx=0;entryDy=0;exitPerimeter=0;entryPerimeter=0;" parent="SR7dJFl_h98uN44ZDj9O-1" target="I-b_-tySnP6Fp9Gjpo1O-0" edge="1">
          <mxGeometry width="50" height="50" relative="1" as="geometry">
            <mxPoint x="409.47" y="551.3600000000001" as="sourcePoint" />
            <mxPoint x="687.798" y="551.3600000000001" as="targetPoint" />
          </mxGeometry>
        </mxCell>
        <mxCell id="I-b_-tySnP6Fp9Gjpo1O-7" value="" style="endArrow=classic;startArrow=classic;html=1;fontFamily=Helvetica;fontSize=12;rounded=1;strokeWidth=3;dashed=1;dashPattern=1 1;fillColor=#60a917;strokeColor=#B20000;exitX=1.007;exitY=0.789;exitDx=0;exitDy=0;entryX=-0.097;entryY=0.092;entryDx=0;entryDy=0;exitPerimeter=0;entryPerimeter=0;" parent="SR7dJFl_h98uN44ZDj9O-1" target="I-b_-tySnP6Fp9Gjpo1O-1" edge="1">
          <mxGeometry width="50" height="50" relative="1" as="geometry">
            <mxPoint x="414.47" y="561.3600000000001" as="sourcePoint" />
            <mxPoint x="730" y="562" as="targetPoint" />
          </mxGeometry>
        </mxCell>
        <mxCell id="I-b_-tySnP6Fp9Gjpo1O-8" value="" style="endArrow=classic;startArrow=classic;html=1;fontFamily=Helvetica;fontSize=12;rounded=1;strokeWidth=3;dashed=1;dashPattern=1 1;fillColor=#60a917;strokeColor=#2D7600;exitX=1.007;exitY=0.789;exitDx=0;exitDy=0;entryX=-0.002;entryY=0.908;entryDx=0;entryDy=0;exitPerimeter=0;entryPerimeter=0;" parent="SR7dJFl_h98uN44ZDj9O-1" edge="1">
          <mxGeometry width="50" height="50" relative="1" as="geometry">
            <mxPoint x="415.47" y="571.3600000000001" as="sourcePoint" />
            <mxPoint x="773" y="571" as="targetPoint" />
          </mxGeometry>
        </mxCell>
        <mxCell id="S0XdMFUr-okfkaE0cwj7-1" value="ИТАН" style="rounded=1;whiteSpace=wrap;html=1;shadow=0;labelBackgroundColor=none;strokeWidth=3;fontFamily=Helvetica;fontSize=12;align=center;fillColor=#d5e8d4;strokeColor=#82b366;verticalAlign=middle;fontColor=default;" parent="SR7dJFl_h98uN44ZDj9O-1" vertex="1">
          <mxGeometry x="365" y="840" width="83" height="39" as="geometry" />
        </mxCell>
        <mxCell id="S0XdMFUr-okfkaE0cwj7-3" value="" style="endArrow=none;startArrow=classic;html=1;fontFamily=Helvetica;fontSize=12;exitX=0.5;exitY=0;exitDx=0;exitDy=0;entryX=0.005;entryY=0.888;entryDx=0;entryDy=0;rounded=1;strokeWidth=3;dashed=1;dashPattern=1 1;fillColor=#60a917;strokeColor=#2D7600;startFill=1;endFill=0;entryPerimeter=0;" parent="SR7dJFl_h98uN44ZDj9O-1" source="yRR4LDYn5sWy--kmtEQJ-1" target="snwNEF9yDEF-lSMQTjwT-0" edge="1">
          <mxGeometry width="50" height="50" relative="1" as="geometry">
            <mxPoint x="123" y="698" as="sourcePoint" />
            <mxPoint x="50" y="770" as="targetPoint" />
            <Array as="points">
              <mxPoint x="83" y="753" />
            </Array>
          </mxGeometry>
        </mxCell>
        <mxCell id="S0XdMFUr-okfkaE0cwj7-7" value="" style="endArrow=classic;startArrow=none;html=1;fontFamily=Helvetica;fontSize=12;exitX=1;exitY=0.5;exitDx=0;exitDy=0;entryX=0.5;entryY=1;entryDx=0;entryDy=0;rounded=1;strokeWidth=3;dashed=1;dashPattern=1 1;fillColor=#60a917;strokeColor=#2D7600;startFill=0;" parent="SR7dJFl_h98uN44ZDj9O-1" source="SR7dJFl_h98uN44ZDj9O-24" target="SR7dJFl_h98uN44ZDj9O-17" edge="1">
          <mxGeometry width="50" height="50" relative="1" as="geometry">
            <mxPoint x="339" y="390" as="sourcePoint" />
            <mxPoint x="299" y="320" as="targetPoint" />
            <Array as="points">
              <mxPoint x="661" y="910" />
            </Array>
          </mxGeometry>
        </mxCell>
        <mxCell id="74vs3m-IRZQvYzPqQEYV-0" value="" style="endArrow=classic;startArrow=none;html=1;fontFamily=Helvetica;fontSize=12;entryX=0.75;entryY=1;entryDx=0;entryDy=0;rounded=1;strokeWidth=3;dashed=1;dashPattern=1 1;fillColor=#60a917;strokeColor=#2D7600;startFill=0;exitX=1.003;exitY=0.275;exitDx=0;exitDy=0;exitPerimeter=0;" parent="SR7dJFl_h98uN44ZDj9O-1" source="SR7dJFl_h98uN44ZDj9O-22" target="SR7dJFl_h98uN44ZDj9O-18" edge="1">
          <mxGeometry width="50" height="50" relative="1" as="geometry">
            <mxPoint x="500" y="870" as="sourcePoint" />
            <mxPoint x="680" y="439" as="targetPoint" />
            <Array as="points">
              <mxPoint x="630" y="860" />
            </Array>
          </mxGeometry>
        </mxCell>
        <mxCell id="74vs3m-IRZQvYzPqQEYV-1" value="" style="endArrow=none;startArrow=classic;html=1;fontFamily=Helvetica;fontSize=12;rounded=1;strokeWidth=3;dashed=1;dashPattern=1 1;fillColor=#60a917;strokeColor=#2D7600;exitX=0;exitY=0.25;exitDx=0;exitDy=0;startFill=1;endFill=0;entryX=0.999;entryY=0.397;entryDx=0;entryDy=0;entryPerimeter=0;" parent="SR7dJFl_h98uN44ZDj9O-1" source="yRR4LDYn5sWy--kmtEQJ-9" target="snwNEF9yDEF-lSMQTjwT-0" edge="1">
          <mxGeometry width="50" height="50" relative="1" as="geometry">
            <mxPoint x="322" y="1025" as="sourcePoint" />
            <mxPoint x="580" y="780" as="targetPoint" />
          </mxGeometry>
        </mxCell>
        <mxCell id="74vs3m-IRZQvYzPqQEYV-2" value="" style="endArrow=none;startArrow=classic;html=1;fontFamily=Helvetica;fontSize=12;rounded=1;strokeWidth=3;dashed=1;dashPattern=1 1;fillColor=#60a917;strokeColor=#2D7600;exitX=1.007;exitY=0.603;exitDx=0;exitDy=0;startFill=1;endFill=0;entryX=0;entryY=0.75;entryDx=0;entryDy=0;exitPerimeter=0;" parent="SR7dJFl_h98uN44ZDj9O-1" source="snwNEF9yDEF-lSMQTjwT-0" target="yRR4LDYn5sWy--kmtEQJ-9" edge="1">
          <mxGeometry width="50" height="50" relative="1" as="geometry">
            <mxPoint x="509" y="645" as="sourcePoint" />
            <mxPoint x="425" y="645" as="targetPoint" />
          </mxGeometry>
        </mxCell>
        <mxCell id="74vs3m-IRZQvYzPqQEYV-3" value="Call-center&lt;div&gt;&lt;br&gt;&lt;/div&gt;&lt;div&gt;Touchpoint&lt;/div&gt;" style="rounded=1;whiteSpace=wrap;html=1;shadow=0;labelBackgroundColor=none;strokeWidth=3;fontFamily=Helvetica;fontSize=12;align=center;fillColor=#647687;strokeColor=#314354;fontColor=#ffffff;verticalAlign=middle;fontStyle=1;" parent="SR7dJFl_h98uN44ZDj9O-1" vertex="1">
          <mxGeometry x="42" y="79" width="80" height="90" as="geometry" />
        </mxCell>
        <mxCell id="8v_L54ngdMfobd58V6bi-0" value="Ф-162 / XBRL&lt;div&gt;ИП Тарасов&lt;/div&gt;" style="rounded=1;whiteSpace=wrap;html=1;shadow=0;labelBackgroundColor=none;strokeWidth=3;fontFamily=Helvetica;fontSize=12;align=center;fillColor=#d5e8d4;strokeColor=#82b366;verticalAlign=middle;fontColor=default;" parent="SR7dJFl_h98uN44ZDj9O-1" vertex="1">
          <mxGeometry x="180" y="843" width="96.5" height="39" as="geometry" />
        </mxCell>
      </root>
    </mxGraphModel>
  </diagram>
  <diagram name="Сайт+ЛК ДМС: Тест" id="epDvHFFZj5ftlzI5qMFz">
    <mxGraphModel dx="2107" dy="1014" grid="1" gridSize="10" guides="1" tooltips="1" connect="1" arrows="1" fold="1" page="1" pageScale="1" pageWidth="827" pageHeight="1169" math="0" shadow="0">
      <root>
        <mxCell id="AWISpj2nUz-8vE6o-3rr-0" />
        <mxCell id="AWISpj2nUz-8vE6o-3rr-1" parent="AWISpj2nUz-8vE6o-3rr-0" />
        <mxCell id="ICIFnZmb9SNMANij_j2L-0" value="&lt;div style=&quot;font-size: 11px;&quot;&gt;СофтЛайн&lt;/div&gt;" style="rounded=1;align=left;verticalAlign=top;spacing=5;arcSize=5;labelPosition=center;verticalLabelPosition=middle;horizontal=1;html=1;labelBackgroundColor=none;whiteSpace=wrap;fontStyle=1;fillColor=#dae8fc;strokeColor=#6c8ebf;opacity=25;fontSize=11;strokeOpacity=100;imageHeight=24;imageWidth=24;absoluteArcSize=0;spacingLeft=5;" parent="AWISpj2nUz-8vE6o-3rr-1" vertex="1">
          <mxGeometry x="1241" y="720" width="240" height="200" as="geometry" />
        </mxCell>
        <mxCell id="ICIFnZmb9SNMANij_j2L-1" value="&lt;div style=&quot;font-size: 11px;&quot;&gt;&lt;span style=&quot;background-color: initial; font-size: 11px;&quot;&gt;ЦОД ПСБС&lt;/span&gt;&lt;/div&gt;" style="rounded=1;align=center;verticalAlign=top;spacing=5;arcSize=5;labelPosition=center;verticalLabelPosition=middle;horizontal=1;html=1;labelBackgroundColor=none;whiteSpace=wrap;fontStyle=1;fillColor=#dae8fc;strokeColor=#6c8ebf;opacity=25;fontSize=11;strokeOpacity=100;imageHeight=24;imageWidth=24;absoluteArcSize=0;spacingLeft=5;" parent="AWISpj2nUz-8vE6o-3rr-1" vertex="1">
          <mxGeometry x="40" y="160" width="1120" height="1000" as="geometry" />
        </mxCell>
        <mxCell id="ICIFnZmb9SNMANij_j2L-2" value="Сеть DMZ Тестовой среды (192.168.40.160/27, vlan 3270)" style="rounded=1;whiteSpace=wrap;html=1;dashed=1;fillStyle=solid;fillColor=#D9D9D9;fontColor=#333333;strokeColor=#666666;glass=0;shadow=0;opacity=25;verticalAlign=top;fontStyle=1;fontSize=11;" parent="AWISpj2nUz-8vE6o-3rr-1" vertex="1">
          <mxGeometry x="280" y="280" width="840" height="520" as="geometry" />
        </mxCell>
        <mxCell id="ICIFnZmb9SNMANij_j2L-3" value="" style="endArrow=classic;html=1;rounded=0;strokeColor=#87B369;strokeWidth=2;align=center;verticalAlign=middle;fontFamily=Helvetica;fontSize=11;fontColor=#000000;labelBackgroundColor=default;" parent="AWISpj2nUz-8vE6o-3rr-1" edge="1">
          <mxGeometry width="50" height="50" relative="1" as="geometry">
            <mxPoint x="660" y="20" as="sourcePoint" />
            <mxPoint x="700" y="19.760000000000183" as="targetPoint" />
          </mxGeometry>
        </mxCell>
        <mxCell id="ICIFnZmb9SNMANij_j2L-4" value="" style="endArrow=classic;html=1;rounded=0;strokeColor=#0000FF;strokeWidth=2;align=center;verticalAlign=middle;fontFamily=Helvetica;fontSize=11;fontColor=default;labelBackgroundColor=default;" parent="AWISpj2nUz-8vE6o-3rr-1" edge="1">
          <mxGeometry width="50" height="50" relative="1" as="geometry">
            <mxPoint x="660" y="40" as="sourcePoint" />
            <mxPoint x="700" y="39.760000000000005" as="targetPoint" />
          </mxGeometry>
        </mxCell>
        <mxCell id="ICIFnZmb9SNMANij_j2L-5" value="" style="endArrow=classic;html=1;rounded=0;strokeColor=#FF8000;strokeWidth=2;align=center;verticalAlign=middle;fontFamily=Helvetica;fontSize=10;fontColor=#7EA6E0;labelBackgroundColor=default;jumpSize=6;startArrow=none;startFill=0;endFill=1;" parent="AWISpj2nUz-8vE6o-3rr-1" edge="1">
          <mxGeometry width="50" height="50" relative="1" as="geometry">
            <mxPoint x="660" y="60" as="sourcePoint" />
            <mxPoint x="700" y="59.760000000000005" as="targetPoint" />
          </mxGeometry>
        </mxCell>
        <mxCell id="ICIFnZmb9SNMANij_j2L-6" value="" style="endArrow=classicThin;html=1;rounded=0;strokeColor=#FF0000;strokeWidth=2;align=center;verticalAlign=middle;fontFamily=Helvetica;fontSize=10;fontColor=#7EA6E0;labelBackgroundColor=default;jumpSize=6;startArrow=none;startFill=0;endFill=0;jumpStyle=gap;" parent="AWISpj2nUz-8vE6o-3rr-1" edge="1">
          <mxGeometry width="50" height="50" relative="1" as="geometry">
            <mxPoint x="660" y="80" as="sourcePoint" />
            <mxPoint x="700" y="79.76000000000022" as="targetPoint" />
          </mxGeometry>
        </mxCell>
        <mxCell id="ICIFnZmb9SNMANij_j2L-7" value="RDP" style="text;html=1;align=left;verticalAlign=middle;whiteSpace=wrap;rounded=0;fontSize=10;fontStyle=1" parent="AWISpj2nUz-8vE6o-3rr-1" vertex="1">
          <mxGeometry x="707" y="10" width="113" height="20" as="geometry" />
        </mxCell>
        <mxCell id="ICIFnZmb9SNMANij_j2L-8" value="HTTP(S)" style="text;html=1;align=left;verticalAlign=middle;whiteSpace=wrap;rounded=0;fontSize=10;fontStyle=1" parent="AWISpj2nUz-8vE6o-3rr-1" vertex="1">
          <mxGeometry x="707" y="30" width="113" height="20" as="geometry" />
        </mxCell>
        <mxCell id="ICIFnZmb9SNMANij_j2L-9" value="SSH+HTTP(S)" style="text;html=1;align=left;verticalAlign=middle;whiteSpace=wrap;rounded=0;fontSize=10;fontStyle=1" parent="AWISpj2nUz-8vE6o-3rr-1" vertex="1">
          <mxGeometry x="707" y="50" width="113" height="20" as="geometry" />
        </mxCell>
        <mxCell id="ICIFnZmb9SNMANij_j2L-10" value="PGSQL, OracleDB" style="text;html=1;align=left;verticalAlign=middle;whiteSpace=wrap;rounded=0;fontSize=10;fontStyle=1" parent="AWISpj2nUz-8vE6o-3rr-1" vertex="1">
          <mxGeometry x="707" y="70" width="113" height="20" as="geometry" />
        </mxCell>
        <mxCell id="ICIFnZmb9SNMANij_j2L-12" value="WAF" style="sketch=0;pointerEvents=1;shadow=0;dashed=0;html=1;strokeColor=none;fillColor=#434445;labelPosition=center;verticalLabelPosition=bottom;verticalAlign=top;align=center;outlineConnect=0;shape=mxgraph.vvd.logical_firewall;fontStyle=1;fontSize=10;" parent="AWISpj2nUz-8vE6o-3rr-1" vertex="1">
          <mxGeometry x="519.75" y="200" width="40" height="40" as="geometry" />
        </mxCell>
        <mxCell id="ICIFnZmb9SNMANij_j2L-13" value="Репозитории" style="ellipse;shape=cloud;whiteSpace=wrap;html=1;fontSize=10;fontStyle=1" parent="AWISpj2nUz-8vE6o-3rr-1" vertex="1">
          <mxGeometry x="1230" y="516" width="400" height="60" as="geometry" />
        </mxCell>
        <mxCell id="ICIFnZmb9SNMANij_j2L-14" value="Сеть Терминальных серверов (192.168.38.5/27)" style="rounded=1;whiteSpace=wrap;html=1;dashed=1;fillStyle=solid;fillColor=#D9D9D9;fontColor=#333333;strokeColor=#666666;glass=0;shadow=0;opacity=50;verticalAlign=top;fontStyle=1;fontSize=11;" parent="AWISpj2nUz-8vE6o-3rr-1" vertex="1">
          <mxGeometry x="80" y="360" width="160" height="160" as="geometry" />
        </mxCell>
        <mxCell id="ICIFnZmb9SNMANij_j2L-15" value="VPN" style="sketch=0;pointerEvents=1;shadow=0;dashed=0;html=1;strokeColor=none;fillColor=#434445;labelPosition=center;verticalLabelPosition=bottom;verticalAlign=top;align=center;outlineConnect=0;shape=mxgraph.vvd.logical_firewall;fontStyle=1;fontSize=10;" parent="AWISpj2nUz-8vE6o-3rr-1" vertex="1">
          <mxGeometry x="140" y="200" width="40" height="40" as="geometry" />
        </mxCell>
        <mxCell id="ICIFnZmb9SNMANij_j2L-16" value="&lt;b style=&quot;font-size: 10px;&quot;&gt;Пользователи&lt;/b&gt;" style="sketch=0;pointerEvents=1;shadow=0;dashed=0;html=1;strokeColor=none;fillColor=#434445;aspect=fixed;labelPosition=center;verticalLabelPosition=bottom;verticalAlign=top;align=center;outlineConnect=0;shape=mxgraph.vvd.user_group;fontSize=10;" parent="AWISpj2nUz-8vE6o-3rr-1" vertex="1">
          <mxGeometry x="522.25" y="40" width="35" height="49.29" as="geometry" />
        </mxCell>
        <mxCell id="ICIFnZmb9SNMANij_j2L-17" value="&lt;b style=&quot;font-size: 10px;&quot;&gt;Операторы&lt;/b&gt;" style="sketch=0;pointerEvents=1;shadow=0;dashed=0;html=1;strokeColor=none;fillColor=#434445;aspect=fixed;labelPosition=center;verticalLabelPosition=bottom;verticalAlign=top;align=center;outlineConnect=0;shape=mxgraph.vvd.user_group;fontSize=10;" parent="AWISpj2nUz-8vE6o-3rr-1" vertex="1">
          <mxGeometry x="142.25" y="40" width="35.5" height="50" as="geometry" />
        </mxCell>
        <mxCell id="ICIFnZmb9SNMANij_j2L-18" value="" style="endArrow=classic;html=1;rounded=0;strokeColor=default;strokeWidth=2;align=center;verticalAlign=middle;fontFamily=Helvetica;fontSize=11;fontColor=default;labelBackgroundColor=default;" parent="AWISpj2nUz-8vE6o-3rr-1" source="ICIFnZmb9SNMANij_j2L-17" target="ICIFnZmb9SNMANij_j2L-15" edge="1">
          <mxGeometry width="50" height="50" relative="1" as="geometry">
            <mxPoint x="430" y="100" as="sourcePoint" />
            <mxPoint x="430" y="250" as="targetPoint" />
          </mxGeometry>
        </mxCell>
        <mxCell id="ICIFnZmb9SNMANij_j2L-19" value="&lt;b&gt;wwwdms-test-fe01&lt;/b&gt;&lt;br&gt;&lt;b&gt;(192.168.40.169)&lt;/b&gt;" style="rounded=1;whiteSpace=wrap;html=1;align=left;verticalAlign=top;spacing=2;fillColor=#e1d5e7;strokeColor=#9673a6;fontSize=10;spacingLeft=3;" parent="AWISpj2nUz-8vE6o-3rr-1" vertex="1">
          <mxGeometry x="640" y="320" width="160" height="160" as="geometry" />
        </mxCell>
        <mxCell id="ICIFnZmb9SNMANij_j2L-20" value="&lt;span style=&quot;text-align: left; font-size: 9px;&quot;&gt;ЛК ДМС (front): 80, 443&lt;/span&gt;" style="rounded=1;whiteSpace=wrap;html=1;fontStyle=1;fontSize=9;" parent="AWISpj2nUz-8vE6o-3rr-1" vertex="1">
          <mxGeometry x="665" y="420" width="110" height="30" as="geometry" />
        </mxCell>
        <mxCell id="ICIFnZmb9SNMANij_j2L-21" value="&lt;span style=&quot;text-align: left; font-size: 9px;&quot;&gt;Сайт&amp;nbsp;&lt;/span&gt;&lt;span style=&quot;background-color: transparent; text-align: left; color: light-dark(rgb(0, 0, 0), rgb(255, 255, 255));&quot;&gt;psbins.ru: 80, 443&lt;/span&gt;" style="rounded=1;whiteSpace=wrap;html=1;fontStyle=1;fontSize=9;glass=0;shadow=0;" parent="AWISpj2nUz-8vE6o-3rr-1" vertex="1">
          <mxGeometry x="665" y="370" width="110" height="30" as="geometry" />
        </mxCell>
        <mxCell id="ICIFnZmb9SNMANij_j2L-22" value="&lt;b style=&quot;font-size: 10px;&quot;&gt;Терминаль-ный сервер&lt;br style=&quot;font-size: 10px;&quot;&gt;&lt;/b&gt;" style="rounded=1;whiteSpace=wrap;html=1;align=center;verticalAlign=middle;spacing=2;fillColor=#e1d5e7;strokeColor=#9673a6;fontSize=10;spacingLeft=3;" parent="AWISpj2nUz-8vE6o-3rr-1" vertex="1">
          <mxGeometry x="120" y="410" width="80" height="80" as="geometry" />
        </mxCell>
        <mxCell id="ICIFnZmb9SNMANij_j2L-23" value="" style="endArrow=classic;html=1;rounded=0;strokeColor=#87B369;strokeWidth=2;align=center;verticalAlign=middle;fontFamily=Helvetica;fontSize=11;fontColor=default;labelBackgroundColor=default;entryX=0.5;entryY=0;entryDx=0;entryDy=0;" parent="AWISpj2nUz-8vE6o-3rr-1" source="ICIFnZmb9SNMANij_j2L-15" target="ICIFnZmb9SNMANij_j2L-22" edge="1">
          <mxGeometry width="50" height="50" relative="1" as="geometry">
            <mxPoint x="190" y="100" as="sourcePoint" />
            <mxPoint x="190" y="250" as="targetPoint" />
          </mxGeometry>
        </mxCell>
        <mxCell id="ICIFnZmb9SNMANij_j2L-24" value="Офисная сеть" style="rounded=1;whiteSpace=wrap;html=1;dashed=1;fillStyle=solid;fillColor=#D9D9D9;fontColor=#333333;strokeColor=#666666;glass=0;shadow=0;opacity=50;verticalAlign=top;fontStyle=1;fontSize=11;" parent="AWISpj2nUz-8vE6o-3rr-1" vertex="1">
          <mxGeometry x="80" y="598" width="160" height="160" as="geometry" />
        </mxCell>
        <mxCell id="ICIFnZmb9SNMANij_j2L-25" value="&lt;b style=&quot;font-size: 10px;&quot;&gt;Операторы&lt;/b&gt;" style="sketch=0;pointerEvents=1;shadow=0;dashed=0;html=1;strokeColor=none;fillColor=#434445;aspect=fixed;labelPosition=center;verticalLabelPosition=bottom;verticalAlign=top;align=center;outlineConnect=0;shape=mxgraph.vvd.user_group;fontSize=10;" parent="AWISpj2nUz-8vE6o-3rr-1" vertex="1">
          <mxGeometry x="142.25" y="653" width="35.5" height="50" as="geometry" />
        </mxCell>
        <mxCell id="ICIFnZmb9SNMANij_j2L-26" value="" style="endArrow=classic;html=1;rounded=0;strokeColor=#87B369;strokeWidth=2;align=center;verticalAlign=middle;fontFamily=Helvetica;fontSize=11;fontColor=default;labelBackgroundColor=default;entryX=0.5;entryY=1;entryDx=0;entryDy=0;" parent="AWISpj2nUz-8vE6o-3rr-1" source="ICIFnZmb9SNMANij_j2L-25" target="ICIFnZmb9SNMANij_j2L-22" edge="1">
          <mxGeometry width="50" height="50" relative="1" as="geometry">
            <mxPoint x="170" y="290" as="sourcePoint" />
            <mxPoint x="170" y="420" as="targetPoint" />
          </mxGeometry>
        </mxCell>
        <mxCell id="ICIFnZmb9SNMANij_j2L-27" value="Яндекс.Карты&amp;nbsp;(https://api-maps.yandex.ru)&lt;div&gt;Яндекс.Метрики&amp;nbsp;&lt;span style=&quot;background-color: transparent; color: light-dark(rgb(0, 0, 0), rgb(255, 255, 255));&quot;&gt;(https://mc.yandex.ru)&lt;/span&gt;&lt;/div&gt;&lt;div&gt;Google Captcha (https://www.google.com&lt;span style=&quot;background-color: initial;&quot;&gt;/recaptcha/)&lt;/span&gt;&lt;span style=&quot;background-color: transparent; color: light-dark(rgb(0, 0, 0), rgb(255, 255, 255));&quot;&gt;&lt;/span&gt;&lt;/div&gt;&lt;div&gt;Google аналитика&amp;nbsp;(https://googletagmanager.com)&lt;span style=&quot;background-color: initial;&quot;&gt;&lt;/span&gt;&lt;/div&gt;&lt;div&gt;Платёжный шлюз (https://3ds.payment.ru)&lt;/div&gt;&lt;div&gt;Битрикс (www.bitrixsoft.com, www.1c-bitrix.ru)&lt;/div&gt;&lt;div&gt;Электронный полис (http://demo.elpolis.ru)&lt;/div&gt;&lt;div&gt;Электронный полис: Интеграция с КЛАДР&lt;span style=&quot;background-color: transparent; color: light-dark(rgb(0, 0, 0), rgb(255, 255, 255));&quot;&gt;&amp;nbsp;(http://dadata.ru)&lt;/span&gt;&lt;/div&gt;&lt;div&gt;&lt;span style=&quot;background-color: transparent;&quot;&gt;Электронный полис: Интеграция с ЕСИА (&lt;/span&gt;&lt;span style=&quot;background-color: transparent;&quot;&gt;esia.gosuslugi.ru&lt;/span&gt;&lt;span style=&quot;background-color: transparent; color: light-dark(rgb(0, 0, 0), rgb(255, 255, 255));&quot;&gt;)&lt;/span&gt;&lt;/div&gt;" style="ellipse;shape=cloud;whiteSpace=wrap;html=1;fontSize=10;fontStyle=1" parent="AWISpj2nUz-8vE6o-3rr-1" vertex="1">
          <mxGeometry x="1241" y="280" width="400" height="240" as="geometry" />
        </mxCell>
        <mxCell id="ICIFnZmb9SNMANij_j2L-28" value="Яндекс.Геокодер&amp;nbsp;(https://geocode-maps.yandex.ru)&lt;div&gt;Сервис СМС&amp;nbsp;(https://smsc.ru)&lt;/div&gt;" style="ellipse;shape=cloud;whiteSpace=wrap;html=1;fontSize=10;fontStyle=1" parent="AWISpj2nUz-8vE6o-3rr-1" vertex="1">
          <mxGeometry x="1241" y="600" width="400" height="80" as="geometry" />
        </mxCell>
        <mxCell id="ICIFnZmb9SNMANij_j2L-29" value="" style="endArrow=classic;html=1;rounded=0;strokeColor=#0000FF;strokeWidth=2;align=center;verticalAlign=middle;fontFamily=Helvetica;fontSize=11;fontColor=default;labelBackgroundColor=default;exitX=1;exitY=0.5;exitDx=0;exitDy=0;edgeStyle=orthogonalEdgeStyle;entryX=0.07;entryY=0.4;entryDx=0;entryDy=0;entryPerimeter=0;" parent="AWISpj2nUz-8vE6o-3rr-1" source="ICIFnZmb9SNMANij_j2L-19" target="ICIFnZmb9SNMANij_j2L-27" edge="1">
          <mxGeometry width="50" height="50" relative="1" as="geometry">
            <mxPoint x="770" y="550" as="sourcePoint" />
            <mxPoint x="937" y="250" as="targetPoint" />
            <Array as="points">
              <mxPoint x="1200" y="400" />
              <mxPoint x="1200" y="376" />
            </Array>
          </mxGeometry>
        </mxCell>
        <mxCell id="ICIFnZmb9SNMANij_j2L-32" value="&lt;b&gt;oradb04-test&lt;br&gt;(192.168.40.167)&lt;/b&gt;" style="rounded=1;whiteSpace=wrap;html=1;align=left;verticalAlign=top;spacing=2;fillColor=#e1d5e7;strokeColor=#9673a6;movable=1;resizable=1;rotatable=1;deletable=1;editable=1;locked=0;connectable=1;fontSize=10;spacingLeft=3;" parent="AWISpj2nUz-8vE6o-3rr-1" vertex="1">
          <mxGeometry x="640" y="560" width="160" height="160" as="geometry" />
        </mxCell>
        <mxCell id="ICIFnZmb9SNMANij_j2L-33" value="БД ИТ ДМС: 1521" style="rounded=1;whiteSpace=wrap;html=1;fontStyle=1;fontSize=9;movable=1;resizable=1;rotatable=1;deletable=1;editable=1;locked=0;connectable=1;" parent="AWISpj2nUz-8vE6o-3rr-1" vertex="1">
          <mxGeometry x="665" y="660" width="110" height="30" as="geometry" />
        </mxCell>
        <mxCell id="ICIFnZmb9SNMANij_j2L-36" value="&lt;b&gt;wwwdms-test-be01&lt;/b&gt;&lt;br&gt;&lt;b&gt;(192.168.40.170)&lt;/b&gt;" style="rounded=1;whiteSpace=wrap;html=1;align=left;verticalAlign=top;spacing=2;fillColor=#e1d5e7;strokeColor=#9673a6;fontSize=10;spacingLeft=3;" parent="AWISpj2nUz-8vE6o-3rr-1" vertex="1">
          <mxGeometry x="880" y="560" width="160" height="160" as="geometry" />
        </mxCell>
        <mxCell id="ICIFnZmb9SNMANij_j2L-37" value="ЛК ДМС (back)" style="rounded=1;whiteSpace=wrap;html=1;fontStyle=1;fontSize=9;" parent="AWISpj2nUz-8vE6o-3rr-1" vertex="1">
          <mxGeometry x="905" y="610" width="110" height="30" as="geometry" />
        </mxCell>
        <mxCell id="ICIFnZmb9SNMANij_j2L-40" value="" style="endArrow=classic;html=1;rounded=0;strokeColor=#0000FF;strokeWidth=2;align=center;verticalAlign=middle;fontFamily=Helvetica;fontSize=11;fontColor=default;labelBackgroundColor=default;exitX=1;exitY=0.5;exitDx=0;exitDy=0;edgeStyle=orthogonalEdgeStyle;entryX=0.07;entryY=0.4;entryDx=0;entryDy=0;entryPerimeter=0;" parent="AWISpj2nUz-8vE6o-3rr-1" source="ICIFnZmb9SNMANij_j2L-36" target="ICIFnZmb9SNMANij_j2L-28" edge="1">
          <mxGeometry width="50" height="50" relative="1" as="geometry">
            <mxPoint x="730" y="630" as="sourcePoint" />
            <mxPoint x="947" y="314" as="targetPoint" />
            <Array as="points">
              <mxPoint x="1200" y="640" />
              <mxPoint x="1200" y="632" />
            </Array>
          </mxGeometry>
        </mxCell>
        <mxCell id="ICIFnZmb9SNMANij_j2L-41" value="ConnectorITDMS: 8582" style="rounded=1;whiteSpace=wrap;html=1;fontStyle=1;fontSize=9;movable=1;resizable=1;rotatable=1;deletable=1;editable=1;locked=0;connectable=1;" parent="AWISpj2nUz-8vE6o-3rr-1" vertex="1">
          <mxGeometry x="665" y="610" width="110" height="30" as="geometry" />
        </mxCell>
        <mxCell id="ICIFnZmb9SNMANij_j2L-42" value="" style="endArrow=classicThin;html=1;rounded=0;strokeColor=#FF0000;strokeWidth=2;align=center;verticalAlign=middle;fontFamily=Helvetica;fontSize=10;fontColor=#7EA6E0;labelBackgroundColor=default;jumpSize=6;startArrow=none;startFill=0;endFill=0;jumpStyle=gap;exitX=0.5;exitY=1;exitDx=0;exitDy=0;entryX=0.5;entryY=0;entryDx=0;entryDy=0;" parent="AWISpj2nUz-8vE6o-3rr-1" source="ICIFnZmb9SNMANij_j2L-41" target="ICIFnZmb9SNMANij_j2L-33" edge="1">
          <mxGeometry width="50" height="50" relative="1" as="geometry">
            <mxPoint x="1180" y="975.12" as="sourcePoint" />
            <mxPoint x="1200" y="914.8800000000002" as="targetPoint" />
          </mxGeometry>
        </mxCell>
        <mxCell id="ICIFnZmb9SNMANij_j2L-43" value="" style="endArrow=classic;html=1;rounded=0;strokeColor=#0000FF;strokeWidth=2;align=center;verticalAlign=middle;fontFamily=Helvetica;fontSize=11;fontColor=default;labelBackgroundColor=default;entryX=0.5;entryY=0;entryDx=0;entryDy=0;exitX=1;exitY=1;exitDx=0;exitDy=0;edgeStyle=orthogonalEdgeStyle;" parent="AWISpj2nUz-8vE6o-3rr-1" source="ICIFnZmb9SNMANij_j2L-20" target="ICIFnZmb9SNMANij_j2L-37" edge="1">
          <mxGeometry width="50" height="50" relative="1" as="geometry">
            <mxPoint x="560" y="510" as="sourcePoint" />
            <mxPoint x="680" y="545" as="targetPoint" />
            <Array as="points">
              <mxPoint x="775" y="490" />
              <mxPoint x="960" y="490" />
            </Array>
          </mxGeometry>
        </mxCell>
        <mxCell id="ICIFnZmb9SNMANij_j2L-45" value="&lt;b&gt;smtp.psbins.ru&lt;/b&gt;&lt;br style=&quot;font-size: 10px;&quot;&gt;&lt;b style=&quot;font-size: 10px;&quot;&gt;(&lt;/b&gt;&lt;b&gt;10.1.3.131&lt;/b&gt;&lt;b style=&quot;font-size: 10px;&quot;&gt;)&lt;/b&gt;" style="rounded=1;whiteSpace=wrap;html=1;align=left;verticalAlign=top;spacing=2;fillColor=#e1d5e7;strokeColor=#9673a6;movable=1;resizable=1;rotatable=1;deletable=1;editable=1;locked=0;connectable=1;fontSize=10;spacingLeft=3;" parent="AWISpj2nUz-8vE6o-3rr-1" vertex="1">
          <mxGeometry x="1281" y="780" width="160" height="80" as="geometry" />
        </mxCell>
        <mxCell id="ICIFnZmb9SNMANij_j2L-46" value="" style="endArrow=classicThin;html=1;rounded=0;strokeColor=#FF00FF;strokeWidth=2;align=center;verticalAlign=middle;fontFamily=Helvetica;fontSize=10;fontColor=#7EA6E0;labelBackgroundColor=default;jumpSize=6;startArrow=none;startFill=0;endFill=0;jumpStyle=gap;" parent="AWISpj2nUz-8vE6o-3rr-1" edge="1">
          <mxGeometry width="50" height="50" relative="1" as="geometry">
            <mxPoint x="660" y="100" as="sourcePoint" />
            <mxPoint x="700" y="99.76000000000022" as="targetPoint" />
          </mxGeometry>
        </mxCell>
        <mxCell id="ICIFnZmb9SNMANij_j2L-47" value="SMTP" style="text;html=1;align=left;verticalAlign=middle;whiteSpace=wrap;rounded=0;fontSize=10;fontStyle=1" parent="AWISpj2nUz-8vE6o-3rr-1" vertex="1">
          <mxGeometry x="707" y="90" width="113" height="20" as="geometry" />
        </mxCell>
        <mxCell id="ICIFnZmb9SNMANij_j2L-48" value="" style="endArrow=classic;html=1;rounded=0;strokeColor=#0000FF;strokeWidth=2;align=center;verticalAlign=middle;fontFamily=Helvetica;fontSize=11;fontColor=default;labelBackgroundColor=default;edgeStyle=orthogonalEdgeStyle;entryX=0.07;entryY=0.4;entryDx=0;entryDy=0;entryPerimeter=0;exitX=1;exitY=0.5;exitDx=0;exitDy=0;" parent="AWISpj2nUz-8vE6o-3rr-1" source="ICIFnZmb9SNMANij_j2L-2" target="ICIFnZmb9SNMANij_j2L-13" edge="1">
          <mxGeometry width="50" height="50" relative="1" as="geometry">
            <mxPoint x="760" y="450" as="sourcePoint" />
            <mxPoint x="530" y="250" as="targetPoint" />
            <Array as="points">
              <mxPoint x="1258" y="540" />
            </Array>
          </mxGeometry>
        </mxCell>
        <mxCell id="ICIFnZmb9SNMANij_j2L-49" value="Прочие сети" style="rounded=1;whiteSpace=wrap;html=1;dashed=1;fillStyle=solid;fillColor=#D9D9D9;fontColor=#333333;strokeColor=#666666;glass=0;shadow=0;opacity=50;verticalAlign=top;fontStyle=1;fontSize=11;" parent="AWISpj2nUz-8vE6o-3rr-1" vertex="1">
          <mxGeometry x="80" y="880" width="1040" height="240" as="geometry" />
        </mxCell>
        <mxCell id="ICIFnZmb9SNMANij_j2L-50" value="&lt;div&gt;&lt;b&gt;ins-test-1c&lt;/b&gt;&lt;br&gt;&lt;div&gt;&lt;b&gt;(172.18.40.7)&lt;/b&gt;&lt;/div&gt;&lt;/div&gt;" style="rounded=1;whiteSpace=wrap;html=1;align=left;verticalAlign=top;spacing=2;fillColor=#e1d5e7;strokeColor=#9673a6;movable=1;resizable=1;rotatable=1;deletable=1;editable=1;locked=0;connectable=1;fontSize=10;spacingLeft=3;" parent="AWISpj2nUz-8vE6o-3rr-1" vertex="1">
          <mxGeometry x="120" y="920" width="160" height="120" as="geometry" />
        </mxCell>
        <mxCell id="ICIFnZmb9SNMANij_j2L-51" value="" style="endArrow=classic;html=1;rounded=0;strokeColor=#FF8000;strokeWidth=2;align=center;verticalAlign=middle;fontFamily=Helvetica;fontSize=11;fontColor=default;labelBackgroundColor=default;entryX=0;entryY=0.75;entryDx=0;entryDy=0;exitX=1;exitY=0.5;exitDx=0;exitDy=0;edgeStyle=orthogonalEdgeStyle;" parent="AWISpj2nUz-8vE6o-3rr-1" source="ICIFnZmb9SNMANij_j2L-24" target="ICIFnZmb9SNMANij_j2L-2" edge="1">
          <mxGeometry width="50" height="50" relative="1" as="geometry">
            <mxPoint x="170" y="730" as="sourcePoint" />
            <mxPoint x="480" y="810" as="targetPoint" />
            <Array as="points">
              <mxPoint x="260" y="678" />
              <mxPoint x="260" y="670" />
            </Array>
          </mxGeometry>
        </mxCell>
        <mxCell id="ICIFnZmb9SNMANij_j2L-52" value="&lt;b&gt;ri-test.psbins.ru&amp;nbsp;&lt;/b&gt;&lt;div&gt;&lt;b&gt;(172.18.32.71)&lt;/b&gt;&lt;/div&gt;" style="rounded=1;whiteSpace=wrap;html=1;align=left;verticalAlign=top;spacing=2;fillColor=#e1d5e7;strokeColor=#9673a6;movable=1;resizable=1;rotatable=1;deletable=1;editable=1;locked=0;connectable=1;fontSize=10;spacingLeft=3;" parent="AWISpj2nUz-8vE6o-3rr-1" vertex="1">
          <mxGeometry x="360" y="920" width="160" height="120" as="geometry" />
        </mxCell>
        <mxCell id="ICIFnZmb9SNMANij_j2L-53" value="&lt;b&gt;b2b-test-fe01&lt;/b&gt;&lt;br style=&quot;font-size: 10px;&quot;&gt;&lt;b style=&quot;font-size: 10px;&quot;&gt;(&lt;/b&gt;&lt;b&gt;192.168.40.172&lt;/b&gt;&lt;b style=&quot;font-size: 10px;&quot;&gt;)&lt;/b&gt;" style="rounded=1;whiteSpace=wrap;html=1;align=left;verticalAlign=top;spacing=2;fillColor=#e1d5e7;strokeColor=#9673a6;fontSize=10;spacingLeft=3;" parent="AWISpj2nUz-8vE6o-3rr-1" vertex="1">
          <mxGeometry x="400" y="560" width="160" height="120" as="geometry" />
        </mxCell>
        <mxCell id="ICIFnZmb9SNMANij_j2L-54" value="ЛК B2B: 80, 443" style="rounded=1;whiteSpace=wrap;html=1;fontStyle=1;fontSize=9;" parent="AWISpj2nUz-8vE6o-3rr-1" vertex="1">
          <mxGeometry x="425" y="610" width="110" height="30" as="geometry" />
        </mxCell>
        <mxCell id="ICIFnZmb9SNMANij_j2L-55" value="" style="endArrow=classic;html=1;rounded=0;strokeColor=#0000FF;strokeWidth=2;align=center;verticalAlign=middle;fontFamily=Helvetica;fontSize=11;fontColor=default;labelBackgroundColor=default;entryX=0.5;entryY=0;entryDx=0;entryDy=0;edgeStyle=orthogonalEdgeStyle;exitX=0.25;exitY=1;exitDx=0;exitDy=0;" parent="AWISpj2nUz-8vE6o-3rr-1" source="ICIFnZmb9SNMANij_j2L-20" target="ICIFnZmb9SNMANij_j2L-54" edge="1">
          <mxGeometry width="50" height="50" relative="1" as="geometry">
            <mxPoint x="730" y="540" as="sourcePoint" />
            <mxPoint x="210" y="850" as="targetPoint" />
            <Array as="points">
              <mxPoint x="693" y="490" />
              <mxPoint x="480" y="490" />
            </Array>
          </mxGeometry>
        </mxCell>
        <mxCell id="ICIFnZmb9SNMANij_j2L-56" value="" style="endArrow=classic;html=1;rounded=0;strokeColor=#FF8000;strokeWidth=2;align=center;verticalAlign=middle;fontFamily=Helvetica;fontSize=11;fontColor=default;labelBackgroundColor=default;entryX=0.5;entryY=0;entryDx=0;entryDy=0;exitX=0.5;exitY=1;exitDx=0;exitDy=0;edgeStyle=orthogonalEdgeStyle;" parent="AWISpj2nUz-8vE6o-3rr-1" source="ICIFnZmb9SNMANij_j2L-24" target="ICIFnZmb9SNMANij_j2L-49" edge="1">
          <mxGeometry width="50" height="50" relative="1" as="geometry">
            <mxPoint x="170" y="730" as="sourcePoint" />
            <mxPoint x="910" y="890" as="targetPoint" />
            <Array as="points">
              <mxPoint x="160" y="860" />
              <mxPoint x="600" y="860" />
            </Array>
          </mxGeometry>
        </mxCell>
        <mxCell id="ICIFnZmb9SNMANij_j2L-57" value="" style="endArrow=classic;html=1;rounded=0;strokeColor=#0000FF;strokeWidth=2;align=center;verticalAlign=middle;fontFamily=Helvetica;fontSize=11;fontColor=default;labelBackgroundColor=default;entryX=0.5;entryY=0;entryDx=0;entryDy=0;edgeStyle=orthogonalEdgeStyle;exitX=0.25;exitY=1;exitDx=0;exitDy=0;" parent="AWISpj2nUz-8vE6o-3rr-1" source="ICIFnZmb9SNMANij_j2L-54" target="ICIFnZmb9SNMANij_j2L-60" edge="1">
          <mxGeometry width="50" height="50" relative="1" as="geometry">
            <mxPoint x="730" y="540" as="sourcePoint" />
            <mxPoint x="210" y="930" as="targetPoint" />
            <Array as="points">
              <mxPoint x="453" y="820" />
              <mxPoint x="200" y="820" />
            </Array>
          </mxGeometry>
        </mxCell>
        <mxCell id="ICIFnZmb9SNMANij_j2L-58" value="" style="endArrow=classicThin;html=1;rounded=0;strokeColor=#FF00FF;strokeWidth=2;align=center;verticalAlign=middle;fontFamily=Helvetica;fontSize=10;fontColor=#7EA6E0;labelBackgroundColor=default;jumpSize=6;startArrow=none;startFill=0;endFill=0;jumpStyle=gap;exitX=0.75;exitY=1;exitDx=0;exitDy=0;edgeStyle=orthogonalEdgeStyle;entryX=0;entryY=0.5;entryDx=0;entryDy=0;" parent="AWISpj2nUz-8vE6o-3rr-1" source="ICIFnZmb9SNMANij_j2L-54" target="ICIFnZmb9SNMANij_j2L-45" edge="1">
          <mxGeometry width="50" height="50" relative="1" as="geometry">
            <mxPoint x="810" y="515" as="sourcePoint" />
            <mxPoint x="1260" y="950" as="targetPoint" />
            <Array as="points">
              <mxPoint x="508" y="820" />
            </Array>
          </mxGeometry>
        </mxCell>
        <mxCell id="ICIFnZmb9SNMANij_j2L-59" value="" style="endArrow=classicThin;html=1;rounded=0;strokeColor=#FF00FF;strokeWidth=2;align=center;verticalAlign=middle;fontFamily=Helvetica;fontSize=10;fontColor=#7EA6E0;labelBackgroundColor=default;jumpSize=6;startArrow=none;startFill=0;endFill=0;jumpStyle=gap;exitX=0.75;exitY=1;exitDx=0;exitDy=0;edgeStyle=orthogonalEdgeStyle;entryX=0;entryY=0.5;entryDx=0;entryDy=0;" parent="AWISpj2nUz-8vE6o-3rr-1" source="ICIFnZmb9SNMANij_j2L-20" target="ICIFnZmb9SNMANij_j2L-45" edge="1">
          <mxGeometry width="50" height="50" relative="1" as="geometry">
            <mxPoint x="518" y="690" as="sourcePoint" />
            <mxPoint x="1291" y="850" as="targetPoint" />
            <Array as="points">
              <mxPoint x="748" y="500" />
              <mxPoint x="860" y="500" />
              <mxPoint x="860" y="820" />
            </Array>
          </mxGeometry>
        </mxCell>
        <mxCell id="ICIFnZmb9SNMANij_j2L-60" value="Тестовый УЦС (1С)" style="rounded=1;whiteSpace=wrap;html=1;fontStyle=1;fontSize=9;" parent="AWISpj2nUz-8vE6o-3rr-1" vertex="1">
          <mxGeometry x="145" y="970" width="110" height="30" as="geometry" />
        </mxCell>
        <mxCell id="ICIFnZmb9SNMANij_j2L-61" value="Тестовый Резолют" style="rounded=1;whiteSpace=wrap;html=1;fontStyle=1;fontSize=9;" parent="AWISpj2nUz-8vE6o-3rr-1" vertex="1">
          <mxGeometry x="385" y="970" width="110" height="30" as="geometry" />
        </mxCell>
        <mxCell id="ICIFnZmb9SNMANij_j2L-62" value="" style="endArrow=classic;html=1;rounded=0;strokeColor=#0000FF;strokeWidth=2;align=center;verticalAlign=middle;fontFamily=Helvetica;fontSize=11;fontColor=default;labelBackgroundColor=default;entryX=0.5;entryY=0;entryDx=0;entryDy=0;edgeStyle=orthogonalEdgeStyle;exitX=0.5;exitY=1;exitDx=0;exitDy=0;" parent="AWISpj2nUz-8vE6o-3rr-1" source="ICIFnZmb9SNMANij_j2L-20" target="ICIFnZmb9SNMANij_j2L-61" edge="1">
          <mxGeometry width="50" height="50" relative="1" as="geometry">
            <mxPoint x="465" y="525" as="sourcePoint" />
            <mxPoint x="595" y="635" as="targetPoint" />
            <Array as="points">
              <mxPoint x="720" y="500" />
              <mxPoint x="580" y="500" />
              <mxPoint x="580" y="850" />
              <mxPoint x="440" y="850" />
            </Array>
          </mxGeometry>
        </mxCell>
        <mxCell id="ICIFnZmb9SNMANij_j2L-63" value="" style="endArrow=classic;html=1;rounded=0;strokeColor=#FF8000;strokeWidth=2;align=center;verticalAlign=middle;fontFamily=Helvetica;fontSize=11;fontColor=default;labelBackgroundColor=default;exitX=1;exitY=0.5;exitDx=0;exitDy=0;edgeStyle=orthogonalEdgeStyle;entryX=0;entryY=0.25;entryDx=0;entryDy=0;" parent="AWISpj2nUz-8vE6o-3rr-1" source="ICIFnZmb9SNMANij_j2L-22" target="ICIFnZmb9SNMANij_j2L-2" edge="1">
          <mxGeometry width="50" height="50" relative="1" as="geometry">
            <mxPoint x="170" y="290" as="sourcePoint" />
            <mxPoint x="280" y="450" as="targetPoint" />
            <Array as="points">
              <mxPoint x="260" y="450" />
              <mxPoint x="260" y="410" />
            </Array>
          </mxGeometry>
        </mxCell>
        <mxCell id="ICIFnZmb9SNMANij_j2L-35" value="БД tss-lk-dms: 5432" style="rounded=1;whiteSpace=wrap;html=1;fontStyle=1;fontSize=9;movable=1;resizable=1;rotatable=1;deletable=1;editable=1;locked=0;connectable=1;" parent="AWISpj2nUz-8vE6o-3rr-1" vertex="1">
          <mxGeometry x="905" y="663" width="110" height="30" as="geometry" />
        </mxCell>
        <mxCell id="ICIFnZmb9SNMANij_j2L-38" value="" style="endArrow=classicThin;html=1;rounded=0;strokeColor=#0000FF;strokeWidth=2;align=center;verticalAlign=middle;fontFamily=Helvetica;fontSize=10;fontColor=#7EA6E0;labelBackgroundColor=default;jumpSize=6;startArrow=none;startFill=0;endFill=0;jumpStyle=gap;exitX=0.25;exitY=1;exitDx=0;exitDy=0;edgeStyle=orthogonalEdgeStyle;entryX=0.5;entryY=0;entryDx=0;entryDy=0;" parent="AWISpj2nUz-8vE6o-3rr-1" source="ICIFnZmb9SNMANij_j2L-37" target="ICIFnZmb9SNMANij_j2L-41" edge="1">
          <mxGeometry width="50" height="50" relative="1" as="geometry">
            <mxPoint x="340" y="344.6600000000002" as="sourcePoint" />
            <mxPoint x="745" y="900" as="targetPoint" />
            <Array as="points">
              <mxPoint x="933" y="650" />
              <mxPoint x="820" y="650" />
              <mxPoint x="820" y="540" />
              <mxPoint x="720" y="540" />
            </Array>
          </mxGeometry>
        </mxCell>
        <mxCell id="ICIFnZmb9SNMANij_j2L-39" value="" style="endArrow=classicThin;html=1;rounded=0;strokeColor=#FF0000;strokeWidth=2;align=center;verticalAlign=middle;fontFamily=Helvetica;fontSize=10;fontColor=#7EA6E0;labelBackgroundColor=default;jumpSize=6;startArrow=none;startFill=0;endFill=0;jumpStyle=gap;exitX=0.5;exitY=1;exitDx=0;exitDy=0;edgeStyle=orthogonalEdgeStyle;entryX=0.5;entryY=0;entryDx=0;entryDy=0;" parent="AWISpj2nUz-8vE6o-3rr-1" source="ICIFnZmb9SNMANij_j2L-37" target="ICIFnZmb9SNMANij_j2L-35" edge="1">
          <mxGeometry width="50" height="50" relative="1" as="geometry">
            <mxPoint x="1025" y="1175" as="sourcePoint" />
            <mxPoint x="345" y="860" as="targetPoint" />
            <Array as="points" />
          </mxGeometry>
        </mxCell>
        <mxCell id="0AoP6w6EsDdCZUrxyxFE-0" value="" style="endArrow=classic;html=1;rounded=0;strokeColor=#0000FF;strokeWidth=2;align=center;verticalAlign=middle;fontFamily=Helvetica;fontSize=11;fontColor=default;labelBackgroundColor=default;" edge="1" parent="AWISpj2nUz-8vE6o-3rr-1" source="ICIFnZmb9SNMANij_j2L-17" target="ICIFnZmb9SNMANij_j2L-12">
          <mxGeometry width="50" height="50" relative="1" as="geometry">
            <mxPoint x="670" y="50" as="sourcePoint" />
            <mxPoint x="710" y="49.760000000000005" as="targetPoint" />
          </mxGeometry>
        </mxCell>
        <mxCell id="0AoP6w6EsDdCZUrxyxFE-1" value="Доступ закрыт с помощью ACL/FireWall по &quot;белому&quot; списку" style="shape=callout;whiteSpace=wrap;html=1;perimeter=calloutPerimeter;size=30;position=0;position2=0;fontStyle=3;fillColor=#fff2cc;strokeColor=#d6b656;" vertex="1" parent="AWISpj2nUz-8vE6o-3rr-1">
          <mxGeometry x="290" y="30" width="190" height="85" as="geometry" />
        </mxCell>
        <mxCell id="VGGIHzD9g_twBssF6zMD-0" value="" style="endArrow=classic;html=1;rounded=0;strokeColor=#0000FF;strokeWidth=2;align=center;verticalAlign=middle;fontFamily=Helvetica;fontSize=11;fontColor=default;labelBackgroundColor=default;entryX=0.5;entryY=0;entryDx=0;entryDy=0;" edge="1" parent="AWISpj2nUz-8vE6o-3rr-1" source="ICIFnZmb9SNMANij_j2L-12" target="ICIFnZmb9SNMANij_j2L-19">
          <mxGeometry width="50" height="50" relative="1" as="geometry">
            <mxPoint x="870" y="110" as="sourcePoint" />
            <mxPoint x="530" y="222" as="targetPoint" />
          </mxGeometry>
        </mxCell>
      </root>
    </mxGraphModel>
  </diagram>
  <diagram name="Сайт+ЛК ДМС: Прод" id="l5D86cT5RqxbmLmJiJlv">
    <mxGraphModel dx="1896" dy="913" grid="1" gridSize="10" guides="1" tooltips="1" connect="1" arrows="1" fold="1" page="1" pageScale="1" pageWidth="827" pageHeight="1169" math="0" shadow="0">
      <root>
        <mxCell id="KvFQF3NMjeuTZSuVZRX8-0" />
        <mxCell id="KvFQF3NMjeuTZSuVZRX8-1" parent="KvFQF3NMjeuTZSuVZRX8-0" />
        <mxCell id="NatxCWkyrvZNsPf3bx0Z-2" value="&lt;div style=&quot;font-size: 11px;&quot;&gt;СофтЛайн&lt;/div&gt;" style="rounded=1;align=left;verticalAlign=top;spacing=5;arcSize=5;labelPosition=center;verticalLabelPosition=middle;horizontal=1;html=1;labelBackgroundColor=none;whiteSpace=wrap;fontStyle=1;fillColor=#dae8fc;strokeColor=#6c8ebf;opacity=25;fontSize=11;strokeOpacity=100;imageHeight=24;imageWidth=24;absoluteArcSize=0;spacingLeft=5;" parent="KvFQF3NMjeuTZSuVZRX8-1" vertex="1">
          <mxGeometry x="1241" y="720" width="240" height="200" as="geometry" />
        </mxCell>
        <mxCell id="15ZeIRZycMTwp8MB8Msy-0" value="&lt;div style=&quot;font-size: 11px;&quot;&gt;&lt;span style=&quot;background-color: initial; font-size: 11px;&quot;&gt;ЦОД ПСБС&lt;/span&gt;&lt;/div&gt;" style="rounded=1;align=center;verticalAlign=top;spacing=5;arcSize=5;labelPosition=center;verticalLabelPosition=middle;horizontal=1;html=1;labelBackgroundColor=none;whiteSpace=wrap;fontStyle=1;fillColor=#dae8fc;strokeColor=#6c8ebf;opacity=25;fontSize=11;strokeOpacity=100;imageHeight=24;imageWidth=24;absoluteArcSize=0;spacingLeft=5;" parent="KvFQF3NMjeuTZSuVZRX8-1" vertex="1">
          <mxGeometry x="40" y="160" width="1120" height="1000" as="geometry" />
        </mxCell>
        <mxCell id="15ZeIRZycMTwp8MB8Msy-1" value="Сеть DMZ Продуктивной среды (192.168.6.160/27, vlan 3902)" style="rounded=1;whiteSpace=wrap;html=1;dashed=1;fillStyle=solid;fillColor=#D9D9D9;fontColor=#333333;strokeColor=#666666;glass=0;shadow=0;opacity=25;verticalAlign=top;fontStyle=1;fontSize=11;" parent="KvFQF3NMjeuTZSuVZRX8-1" vertex="1">
          <mxGeometry x="280" y="280" width="840" height="520" as="geometry" />
        </mxCell>
        <mxCell id="15ZeIRZycMTwp8MB8Msy-2" value="" style="endArrow=classic;html=1;rounded=0;strokeColor=#87B369;strokeWidth=2;align=center;verticalAlign=middle;fontFamily=Helvetica;fontSize=11;fontColor=#000000;labelBackgroundColor=default;" parent="KvFQF3NMjeuTZSuVZRX8-1" edge="1">
          <mxGeometry width="50" height="50" relative="1" as="geometry">
            <mxPoint x="660" y="20" as="sourcePoint" />
            <mxPoint x="700" y="19.760000000000183" as="targetPoint" />
          </mxGeometry>
        </mxCell>
        <mxCell id="15ZeIRZycMTwp8MB8Msy-3" value="" style="endArrow=classic;html=1;rounded=0;strokeColor=#0000FF;strokeWidth=2;align=center;verticalAlign=middle;fontFamily=Helvetica;fontSize=11;fontColor=default;labelBackgroundColor=default;" parent="KvFQF3NMjeuTZSuVZRX8-1" edge="1">
          <mxGeometry width="50" height="50" relative="1" as="geometry">
            <mxPoint x="660" y="40" as="sourcePoint" />
            <mxPoint x="700" y="39.760000000000005" as="targetPoint" />
          </mxGeometry>
        </mxCell>
        <mxCell id="15ZeIRZycMTwp8MB8Msy-4" value="" style="endArrow=classic;html=1;rounded=0;strokeColor=#FF8000;strokeWidth=2;align=center;verticalAlign=middle;fontFamily=Helvetica;fontSize=10;fontColor=#7EA6E0;labelBackgroundColor=default;jumpSize=6;startArrow=none;startFill=0;endFill=1;" parent="KvFQF3NMjeuTZSuVZRX8-1" edge="1">
          <mxGeometry width="50" height="50" relative="1" as="geometry">
            <mxPoint x="660" y="60" as="sourcePoint" />
            <mxPoint x="700" y="59.760000000000005" as="targetPoint" />
          </mxGeometry>
        </mxCell>
        <mxCell id="15ZeIRZycMTwp8MB8Msy-5" value="" style="endArrow=classicThin;html=1;rounded=0;strokeColor=#FF0000;strokeWidth=2;align=center;verticalAlign=middle;fontFamily=Helvetica;fontSize=10;fontColor=#7EA6E0;labelBackgroundColor=default;jumpSize=6;startArrow=none;startFill=0;endFill=0;jumpStyle=gap;" parent="KvFQF3NMjeuTZSuVZRX8-1" edge="1">
          <mxGeometry width="50" height="50" relative="1" as="geometry">
            <mxPoint x="660" y="80" as="sourcePoint" />
            <mxPoint x="700" y="79.76000000000022" as="targetPoint" />
          </mxGeometry>
        </mxCell>
        <mxCell id="15ZeIRZycMTwp8MB8Msy-6" value="RDP" style="text;html=1;align=left;verticalAlign=middle;whiteSpace=wrap;rounded=0;fontSize=10;fontStyle=1" parent="KvFQF3NMjeuTZSuVZRX8-1" vertex="1">
          <mxGeometry x="707" y="10" width="113" height="20" as="geometry" />
        </mxCell>
        <mxCell id="15ZeIRZycMTwp8MB8Msy-7" value="HTTP(S)" style="text;html=1;align=left;verticalAlign=middle;whiteSpace=wrap;rounded=0;fontSize=10;fontStyle=1" parent="KvFQF3NMjeuTZSuVZRX8-1" vertex="1">
          <mxGeometry x="707" y="30" width="113" height="20" as="geometry" />
        </mxCell>
        <mxCell id="15ZeIRZycMTwp8MB8Msy-8" value="SSH+HTTP(S)" style="text;html=1;align=left;verticalAlign=middle;whiteSpace=wrap;rounded=0;fontSize=10;fontStyle=1" parent="KvFQF3NMjeuTZSuVZRX8-1" vertex="1">
          <mxGeometry x="707" y="50" width="113" height="20" as="geometry" />
        </mxCell>
        <mxCell id="15ZeIRZycMTwp8MB8Msy-9" value="PGSQL, OracleDB" style="text;html=1;align=left;verticalAlign=middle;whiteSpace=wrap;rounded=0;fontSize=10;fontStyle=1" parent="KvFQF3NMjeuTZSuVZRX8-1" vertex="1">
          <mxGeometry x="707" y="70" width="113" height="20" as="geometry" />
        </mxCell>
        <mxCell id="15ZeIRZycMTwp8MB8Msy-11" value="WAF" style="sketch=0;pointerEvents=1;shadow=0;dashed=0;html=1;strokeColor=none;fillColor=#434445;labelPosition=center;verticalLabelPosition=bottom;verticalAlign=top;align=center;outlineConnect=0;shape=mxgraph.vvd.logical_firewall;fontStyle=1;fontSize=10;" parent="KvFQF3NMjeuTZSuVZRX8-1" vertex="1">
          <mxGeometry x="519.75" y="200" width="40" height="40" as="geometry" />
        </mxCell>
        <mxCell id="15ZeIRZycMTwp8MB8Msy-12" value="Репозитории" style="ellipse;shape=cloud;whiteSpace=wrap;html=1;fontSize=10;fontStyle=1" parent="KvFQF3NMjeuTZSuVZRX8-1" vertex="1">
          <mxGeometry x="1230" y="515" width="400" height="60" as="geometry" />
        </mxCell>
        <mxCell id="15ZeIRZycMTwp8MB8Msy-13" value="Сеть Терминальных серверов (192.168.38.5/27)" style="rounded=1;whiteSpace=wrap;html=1;dashed=1;fillStyle=solid;fillColor=#D9D9D9;fontColor=#333333;strokeColor=#666666;glass=0;shadow=0;opacity=50;verticalAlign=top;fontStyle=1;fontSize=11;" parent="KvFQF3NMjeuTZSuVZRX8-1" vertex="1">
          <mxGeometry x="80" y="360" width="160" height="160" as="geometry" />
        </mxCell>
        <mxCell id="15ZeIRZycMTwp8MB8Msy-14" value="VPN" style="sketch=0;pointerEvents=1;shadow=0;dashed=0;html=1;strokeColor=none;fillColor=#434445;labelPosition=center;verticalLabelPosition=bottom;verticalAlign=top;align=center;outlineConnect=0;shape=mxgraph.vvd.logical_firewall;fontStyle=1;fontSize=10;" parent="KvFQF3NMjeuTZSuVZRX8-1" vertex="1">
          <mxGeometry x="140" y="200" width="40" height="40" as="geometry" />
        </mxCell>
        <mxCell id="15ZeIRZycMTwp8MB8Msy-15" value="&lt;b style=&quot;font-size: 10px;&quot;&gt;Пользователи&lt;/b&gt;" style="sketch=0;pointerEvents=1;shadow=0;dashed=0;html=1;strokeColor=none;fillColor=#434445;aspect=fixed;labelPosition=center;verticalLabelPosition=bottom;verticalAlign=top;align=center;outlineConnect=0;shape=mxgraph.vvd.user_group;fontSize=10;" parent="KvFQF3NMjeuTZSuVZRX8-1" vertex="1">
          <mxGeometry x="522.25" y="40" width="35" height="49.29" as="geometry" />
        </mxCell>
        <mxCell id="15ZeIRZycMTwp8MB8Msy-16" value="&lt;b style=&quot;font-size: 10px;&quot;&gt;Операторы&lt;/b&gt;" style="sketch=0;pointerEvents=1;shadow=0;dashed=0;html=1;strokeColor=none;fillColor=#434445;aspect=fixed;labelPosition=center;verticalLabelPosition=bottom;verticalAlign=top;align=center;outlineConnect=0;shape=mxgraph.vvd.user_group;fontSize=10;" parent="KvFQF3NMjeuTZSuVZRX8-1" vertex="1">
          <mxGeometry x="142.25" y="40" width="35.5" height="50" as="geometry" />
        </mxCell>
        <mxCell id="15ZeIRZycMTwp8MB8Msy-17" value="" style="endArrow=classic;html=1;rounded=0;strokeColor=default;strokeWidth=2;align=center;verticalAlign=middle;fontFamily=Helvetica;fontSize=11;fontColor=default;labelBackgroundColor=default;" parent="KvFQF3NMjeuTZSuVZRX8-1" source="15ZeIRZycMTwp8MB8Msy-16" target="15ZeIRZycMTwp8MB8Msy-14" edge="1">
          <mxGeometry width="50" height="50" relative="1" as="geometry">
            <mxPoint x="430" y="100" as="sourcePoint" />
            <mxPoint x="430" y="250" as="targetPoint" />
          </mxGeometry>
        </mxCell>
        <mxCell id="15ZeIRZycMTwp8MB8Msy-18" value="&lt;b style=&quot;font-size: 10px;&quot;&gt;wwwdms-prod-fe01&lt;/b&gt;&lt;br style=&quot;font-size: 10px;&quot;&gt;&lt;b style=&quot;font-size: 10px;&quot;&gt;(&lt;/b&gt;&lt;b&gt;192.168.6.165&lt;/b&gt;&lt;b style=&quot;font-size: 10px;&quot;&gt;)&lt;/b&gt;" style="rounded=1;whiteSpace=wrap;html=1;align=left;verticalAlign=top;spacing=2;fillColor=#e1d5e7;strokeColor=#9673a6;fontSize=10;spacingLeft=3;" parent="KvFQF3NMjeuTZSuVZRX8-1" vertex="1">
          <mxGeometry x="640" y="320" width="160" height="160" as="geometry" />
        </mxCell>
        <mxCell id="15ZeIRZycMTwp8MB8Msy-19" value="&lt;span style=&quot;text-align: left; font-size: 9px;&quot;&gt;ЛК ДМС (front): 80, 443&lt;/span&gt;" style="rounded=1;whiteSpace=wrap;html=1;fontStyle=1;fontSize=9;" parent="KvFQF3NMjeuTZSuVZRX8-1" vertex="1">
          <mxGeometry x="665" y="420" width="110" height="30" as="geometry" />
        </mxCell>
        <mxCell id="15ZeIRZycMTwp8MB8Msy-20" value="&lt;span style=&quot;text-align: left; font-size: 9px;&quot;&gt;Сайт&amp;nbsp;&lt;/span&gt;&lt;span style=&quot;background-color: transparent; text-align: left; color: light-dark(rgb(0, 0, 0), rgb(255, 255, 255));&quot;&gt;psbins.ru: 80, 443&lt;/span&gt;" style="rounded=1;whiteSpace=wrap;html=1;fontStyle=1;fontSize=9;glass=0;shadow=0;" parent="KvFQF3NMjeuTZSuVZRX8-1" vertex="1">
          <mxGeometry x="665" y="370" width="110" height="30" as="geometry" />
        </mxCell>
        <mxCell id="15ZeIRZycMTwp8MB8Msy-21" value="&lt;b style=&quot;font-size: 10px;&quot;&gt;Терминаль-ный сервер&lt;br style=&quot;font-size: 10px;&quot;&gt;&lt;/b&gt;" style="rounded=1;whiteSpace=wrap;html=1;align=center;verticalAlign=middle;spacing=2;fillColor=#e1d5e7;strokeColor=#9673a6;fontSize=10;spacingLeft=3;" parent="KvFQF3NMjeuTZSuVZRX8-1" vertex="1">
          <mxGeometry x="120" y="410" width="80" height="80" as="geometry" />
        </mxCell>
        <mxCell id="15ZeIRZycMTwp8MB8Msy-22" value="" style="endArrow=classic;html=1;rounded=0;strokeColor=#87B369;strokeWidth=2;align=center;verticalAlign=middle;fontFamily=Helvetica;fontSize=11;fontColor=default;labelBackgroundColor=default;entryX=0.5;entryY=0;entryDx=0;entryDy=0;" parent="KvFQF3NMjeuTZSuVZRX8-1" source="15ZeIRZycMTwp8MB8Msy-14" target="15ZeIRZycMTwp8MB8Msy-21" edge="1">
          <mxGeometry width="50" height="50" relative="1" as="geometry">
            <mxPoint x="190" y="100" as="sourcePoint" />
            <mxPoint x="190" y="250" as="targetPoint" />
          </mxGeometry>
        </mxCell>
        <mxCell id="15ZeIRZycMTwp8MB8Msy-24" value="Офисная сеть" style="rounded=1;whiteSpace=wrap;html=1;dashed=1;fillStyle=solid;fillColor=#D9D9D9;fontColor=#333333;strokeColor=#666666;glass=0;shadow=0;opacity=50;verticalAlign=top;fontStyle=1;fontSize=11;" parent="KvFQF3NMjeuTZSuVZRX8-1" vertex="1">
          <mxGeometry x="80" y="598" width="160" height="160" as="geometry" />
        </mxCell>
        <mxCell id="15ZeIRZycMTwp8MB8Msy-25" value="&lt;b style=&quot;font-size: 10px;&quot;&gt;Операторы&lt;/b&gt;" style="sketch=0;pointerEvents=1;shadow=0;dashed=0;html=1;strokeColor=none;fillColor=#434445;aspect=fixed;labelPosition=center;verticalLabelPosition=bottom;verticalAlign=top;align=center;outlineConnect=0;shape=mxgraph.vvd.user_group;fontSize=10;" parent="KvFQF3NMjeuTZSuVZRX8-1" vertex="1">
          <mxGeometry x="142.25" y="653" width="35.5" height="50" as="geometry" />
        </mxCell>
        <mxCell id="15ZeIRZycMTwp8MB8Msy-26" value="" style="endArrow=classic;html=1;rounded=0;strokeColor=#87B369;strokeWidth=2;align=center;verticalAlign=middle;fontFamily=Helvetica;fontSize=11;fontColor=default;labelBackgroundColor=default;entryX=0.5;entryY=1;entryDx=0;entryDy=0;" parent="KvFQF3NMjeuTZSuVZRX8-1" source="15ZeIRZycMTwp8MB8Msy-25" target="15ZeIRZycMTwp8MB8Msy-21" edge="1">
          <mxGeometry width="50" height="50" relative="1" as="geometry">
            <mxPoint x="170" y="290" as="sourcePoint" />
            <mxPoint x="170" y="420" as="targetPoint" />
          </mxGeometry>
        </mxCell>
        <mxCell id="15ZeIRZycMTwp8MB8Msy-28" value="Яндекс.Карты&amp;nbsp;(https://api-maps.yandex.ru)&lt;div&gt;Яндекс.Метрики&amp;nbsp;&lt;span style=&quot;background-color: transparent; color: light-dark(rgb(0, 0, 0), rgb(255, 255, 255));&quot;&gt;(https://mc.yandex.ru)&lt;/span&gt;&lt;/div&gt;&lt;div&gt;Google Captcha (https://www.google.com&lt;span style=&quot;background-color: initial;&quot;&gt;/recaptcha/)&lt;/span&gt;&lt;span style=&quot;background-color: transparent; color: light-dark(rgb(0, 0, 0), rgb(255, 255, 255));&quot;&gt;&lt;/span&gt;&lt;/div&gt;&lt;div&gt;Google аналитика&amp;nbsp;(https://googletagmanager.com)&lt;span style=&quot;background-color: initial;&quot;&gt;&lt;/span&gt;&lt;/div&gt;&lt;div&gt;Платёжный шлюз (https://3ds.payment.ru)&lt;/div&gt;&lt;div&gt;Битрикс (www.bitrixsoft.com, www.1c-bitrix.ru)&lt;/div&gt;&lt;div&gt;Электронный полис (http://demo.elpolis.ru)&lt;/div&gt;&lt;div&gt;Электронный полис: Интеграция с КЛАДР&lt;span style=&quot;background-color: transparent; color: light-dark(rgb(0, 0, 0), rgb(255, 255, 255));&quot;&gt;&amp;nbsp;(http://dadata.ru)&lt;/span&gt;&lt;/div&gt;&lt;div&gt;&lt;span style=&quot;background-color: transparent;&quot;&gt;Электронный полис: Интеграция с ЕСИА (&lt;/span&gt;&lt;span style=&quot;background-color: transparent;&quot;&gt;esia.gosuslugi.ru&lt;/span&gt;&lt;span style=&quot;background-color: transparent; color: light-dark(rgb(0, 0, 0), rgb(255, 255, 255));&quot;&gt;)&lt;/span&gt;&lt;/div&gt;" style="ellipse;shape=cloud;whiteSpace=wrap;html=1;fontSize=10;fontStyle=1" parent="KvFQF3NMjeuTZSuVZRX8-1" vertex="1">
          <mxGeometry x="1241" y="280" width="400" height="240" as="geometry" />
        </mxCell>
        <mxCell id="15ZeIRZycMTwp8MB8Msy-33" value="Яндекс.Геокодер&amp;nbsp;(https://geocode-maps.yandex.ru)&lt;div&gt;Сервис СМС&amp;nbsp;(https://smsc.ru)&lt;/div&gt;" style="ellipse;shape=cloud;whiteSpace=wrap;html=1;fontSize=10;fontStyle=1" parent="KvFQF3NMjeuTZSuVZRX8-1" vertex="1">
          <mxGeometry x="1241" y="600" width="400" height="80" as="geometry" />
        </mxCell>
        <mxCell id="15ZeIRZycMTwp8MB8Msy-44" value="" style="endArrow=classic;html=1;rounded=0;strokeColor=#0000FF;strokeWidth=2;align=center;verticalAlign=middle;fontFamily=Helvetica;fontSize=11;fontColor=default;labelBackgroundColor=default;exitX=1;exitY=0.5;exitDx=0;exitDy=0;edgeStyle=orthogonalEdgeStyle;entryX=0.07;entryY=0.4;entryDx=0;entryDy=0;entryPerimeter=0;" parent="KvFQF3NMjeuTZSuVZRX8-1" source="15ZeIRZycMTwp8MB8Msy-18" target="15ZeIRZycMTwp8MB8Msy-28" edge="1">
          <mxGeometry width="50" height="50" relative="1" as="geometry">
            <mxPoint x="770" y="550" as="sourcePoint" />
            <mxPoint x="937" y="250" as="targetPoint" />
            <Array as="points">
              <mxPoint x="1200" y="400" />
              <mxPoint x="1200" y="376" />
            </Array>
          </mxGeometry>
        </mxCell>
        <mxCell id="vdJchYIwWAiRLiAFevXH-0" value="" style="endArrow=classic;html=1;rounded=0;strokeColor=#0000FF;strokeWidth=2;align=center;verticalAlign=middle;fontFamily=Helvetica;fontSize=11;fontColor=default;labelBackgroundColor=default;" parent="KvFQF3NMjeuTZSuVZRX8-1" source="15ZeIRZycMTwp8MB8Msy-15" target="15ZeIRZycMTwp8MB8Msy-11" edge="1">
          <mxGeometry width="50" height="50" relative="1" as="geometry">
            <mxPoint x="670" y="50" as="sourcePoint" />
            <mxPoint x="710" y="49.760000000000005" as="targetPoint" />
          </mxGeometry>
        </mxCell>
        <mxCell id="vdJchYIwWAiRLiAFevXH-1" value="" style="endArrow=classic;html=1;rounded=0;strokeColor=#0000FF;strokeWidth=2;align=center;verticalAlign=middle;fontFamily=Helvetica;fontSize=11;fontColor=default;labelBackgroundColor=default;entryX=0.5;entryY=0;entryDx=0;entryDy=0;" parent="KvFQF3NMjeuTZSuVZRX8-1" source="15ZeIRZycMTwp8MB8Msy-11" target="15ZeIRZycMTwp8MB8Msy-18" edge="1">
          <mxGeometry width="50" height="50" relative="1" as="geometry">
            <mxPoint x="528" y="100" as="sourcePoint" />
            <mxPoint x="530" y="250" as="targetPoint" />
          </mxGeometry>
        </mxCell>
        <mxCell id="15ZeIRZycMTwp8MB8Msy-38" value="&lt;b style=&quot;font-size: 10px;&quot;&gt;wwwdms-prod-be01&lt;/b&gt;&lt;br style=&quot;font-size: 10px;&quot;&gt;&lt;b style=&quot;font-size: 10px;&quot;&gt;(&lt;/b&gt;&lt;b&gt;192.168.6.166&lt;/b&gt;&lt;b style=&quot;font-size: 10px;&quot;&gt;)&lt;/b&gt;" style="rounded=1;whiteSpace=wrap;html=1;align=left;verticalAlign=top;spacing=2;fillColor=#e1d5e7;strokeColor=#9673a6;fontSize=10;spacingLeft=3;" parent="KvFQF3NMjeuTZSuVZRX8-1" vertex="1">
          <mxGeometry x="880" y="560" width="160" height="120" as="geometry" />
        </mxCell>
        <mxCell id="15ZeIRZycMTwp8MB8Msy-39" value="ЛК ДМС (back)" style="rounded=1;whiteSpace=wrap;html=1;fontStyle=1;fontSize=9;" parent="KvFQF3NMjeuTZSuVZRX8-1" vertex="1">
          <mxGeometry x="905" y="610" width="110" height="30" as="geometry" />
        </mxCell>
        <mxCell id="15ZeIRZycMTwp8MB8Msy-45" value="" style="endArrow=classic;html=1;rounded=0;strokeColor=#0000FF;strokeWidth=2;align=center;verticalAlign=middle;fontFamily=Helvetica;fontSize=11;fontColor=default;labelBackgroundColor=default;exitX=1;exitY=0.5;exitDx=0;exitDy=0;edgeStyle=orthogonalEdgeStyle;entryX=0.07;entryY=0.4;entryDx=0;entryDy=0;entryPerimeter=0;" parent="KvFQF3NMjeuTZSuVZRX8-1" source="15ZeIRZycMTwp8MB8Msy-38" target="15ZeIRZycMTwp8MB8Msy-33" edge="1">
          <mxGeometry width="50" height="50" relative="1" as="geometry">
            <mxPoint x="730" y="630" as="sourcePoint" />
            <mxPoint x="947" y="314" as="targetPoint" />
            <Array as="points">
              <mxPoint x="1200" y="620" />
              <mxPoint x="1200" y="632" />
            </Array>
          </mxGeometry>
        </mxCell>
        <mxCell id="15ZeIRZycMTwp8MB8Msy-42" value="" style="endArrow=classic;html=1;rounded=0;strokeColor=#0000FF;strokeWidth=2;align=center;verticalAlign=middle;fontFamily=Helvetica;fontSize=11;fontColor=default;labelBackgroundColor=default;entryX=0.5;entryY=0;entryDx=0;entryDy=0;exitX=1;exitY=1;exitDx=0;exitDy=0;edgeStyle=orthogonalEdgeStyle;" parent="KvFQF3NMjeuTZSuVZRX8-1" source="15ZeIRZycMTwp8MB8Msy-19" target="15ZeIRZycMTwp8MB8Msy-39" edge="1">
          <mxGeometry width="50" height="50" relative="1" as="geometry">
            <mxPoint x="560" y="510" as="sourcePoint" />
            <mxPoint x="680" y="545" as="targetPoint" />
            <Array as="points">
              <mxPoint x="775" y="490" />
              <mxPoint x="960" y="490" />
            </Array>
          </mxGeometry>
        </mxCell>
        <mxCell id="NatxCWkyrvZNsPf3bx0Z-1" value="&lt;b&gt;smtp.psbins.ru&lt;/b&gt;&lt;br style=&quot;font-size: 10px;&quot;&gt;&lt;b style=&quot;font-size: 10px;&quot;&gt;(&lt;/b&gt;&lt;b&gt;10.1.3.131&lt;/b&gt;&lt;b style=&quot;font-size: 10px;&quot;&gt;)&lt;/b&gt;" style="rounded=1;whiteSpace=wrap;html=1;align=left;verticalAlign=top;spacing=2;fillColor=#e1d5e7;strokeColor=#9673a6;movable=1;resizable=1;rotatable=1;deletable=1;editable=1;locked=0;connectable=1;fontSize=10;spacingLeft=3;" parent="KvFQF3NMjeuTZSuVZRX8-1" vertex="1">
          <mxGeometry x="1281" y="780" width="160" height="80" as="geometry" />
        </mxCell>
        <mxCell id="NatxCWkyrvZNsPf3bx0Z-3" value="" style="endArrow=classicThin;html=1;rounded=0;strokeColor=#FF00FF;strokeWidth=2;align=center;verticalAlign=middle;fontFamily=Helvetica;fontSize=10;fontColor=#7EA6E0;labelBackgroundColor=default;jumpSize=6;startArrow=none;startFill=0;endFill=0;jumpStyle=gap;" parent="KvFQF3NMjeuTZSuVZRX8-1" edge="1">
          <mxGeometry width="50" height="50" relative="1" as="geometry">
            <mxPoint x="660" y="100" as="sourcePoint" />
            <mxPoint x="700" y="99.76000000000022" as="targetPoint" />
          </mxGeometry>
        </mxCell>
        <mxCell id="NatxCWkyrvZNsPf3bx0Z-4" value="SMTP" style="text;html=1;align=left;verticalAlign=middle;whiteSpace=wrap;rounded=0;fontSize=10;fontStyle=1" parent="KvFQF3NMjeuTZSuVZRX8-1" vertex="1">
          <mxGeometry x="707" y="90" width="113" height="20" as="geometry" />
        </mxCell>
        <mxCell id="15ZeIRZycMTwp8MB8Msy-27" value="" style="endArrow=classic;html=1;rounded=0;strokeColor=#0000FF;strokeWidth=2;align=center;verticalAlign=middle;fontFamily=Helvetica;fontSize=11;fontColor=default;labelBackgroundColor=default;edgeStyle=orthogonalEdgeStyle;entryX=0.07;entryY=0.4;entryDx=0;entryDy=0;entryPerimeter=0;exitX=1;exitY=0.5;exitDx=0;exitDy=0;" parent="KvFQF3NMjeuTZSuVZRX8-1" source="15ZeIRZycMTwp8MB8Msy-1" target="15ZeIRZycMTwp8MB8Msy-12" edge="1">
          <mxGeometry width="50" height="50" relative="1" as="geometry">
            <mxPoint x="760" y="450" as="sourcePoint" />
            <mxPoint x="530" y="250" as="targetPoint" />
            <Array as="points">
              <mxPoint x="1258" y="540" />
            </Array>
          </mxGeometry>
        </mxCell>
        <mxCell id="wGoazCiD23fc3Q4HcZjO-0" value="Прочие сети" style="rounded=1;whiteSpace=wrap;html=1;dashed=1;fillStyle=solid;fillColor=#D9D9D9;fontColor=#333333;strokeColor=#666666;glass=0;shadow=0;opacity=50;verticalAlign=top;fontStyle=1;fontSize=11;" parent="KvFQF3NMjeuTZSuVZRX8-1" vertex="1">
          <mxGeometry x="80" y="880" width="1040" height="240" as="geometry" />
        </mxCell>
        <mxCell id="wGoazCiD23fc3Q4HcZjO-1" value="&lt;div&gt;&lt;b&gt;delta-ins-app&lt;/b&gt;&lt;br&gt;&lt;div&gt;&lt;b&gt;(172.18.32.5)&lt;/b&gt;&lt;/div&gt;&lt;/div&gt;" style="rounded=1;whiteSpace=wrap;html=1;align=left;verticalAlign=top;spacing=2;fillColor=#e1d5e7;strokeColor=#9673a6;movable=1;resizable=1;rotatable=1;deletable=1;editable=1;locked=0;connectable=1;fontSize=10;spacingLeft=3;" parent="KvFQF3NMjeuTZSuVZRX8-1" vertex="1">
          <mxGeometry x="120" y="920" width="160" height="120" as="geometry" />
        </mxCell>
        <mxCell id="wGoazCiD23fc3Q4HcZjO-4" value="" style="endArrow=classic;html=1;rounded=0;strokeColor=#FF8000;strokeWidth=2;align=center;verticalAlign=middle;fontFamily=Helvetica;fontSize=11;fontColor=default;labelBackgroundColor=default;entryX=0;entryY=0.75;entryDx=0;entryDy=0;exitX=1;exitY=0.5;exitDx=0;exitDy=0;edgeStyle=orthogonalEdgeStyle;" parent="KvFQF3NMjeuTZSuVZRX8-1" source="15ZeIRZycMTwp8MB8Msy-24" target="15ZeIRZycMTwp8MB8Msy-1" edge="1">
          <mxGeometry width="50" height="50" relative="1" as="geometry">
            <mxPoint x="170" y="730" as="sourcePoint" />
            <mxPoint x="480" y="810" as="targetPoint" />
            <Array as="points">
              <mxPoint x="260" y="678" />
              <mxPoint x="260" y="670" />
            </Array>
          </mxGeometry>
        </mxCell>
        <mxCell id="wGoazCiD23fc3Q4HcZjO-6" value="&lt;b&gt;ri.psbins.ru&amp;nbsp;&lt;/b&gt;&lt;div&gt;&lt;b&gt;(172.18.32.70)&lt;/b&gt;&lt;/div&gt;" style="rounded=1;whiteSpace=wrap;html=1;align=left;verticalAlign=top;spacing=2;fillColor=#e1d5e7;strokeColor=#9673a6;movable=1;resizable=1;rotatable=1;deletable=1;editable=1;locked=0;connectable=1;fontSize=10;spacingLeft=3;" parent="KvFQF3NMjeuTZSuVZRX8-1" vertex="1">
          <mxGeometry x="360" y="920" width="160" height="120" as="geometry" />
        </mxCell>
        <mxCell id="wGoazCiD23fc3Q4HcZjO-7" value="&lt;b&gt;b2b-prod-fe01&lt;/b&gt;&lt;br style=&quot;font-size: 10px;&quot;&gt;&lt;b style=&quot;font-size: 10px;&quot;&gt;(&lt;/b&gt;&lt;b&gt;192.168.6.172&lt;/b&gt;&lt;b style=&quot;font-size: 10px;&quot;&gt;)&lt;/b&gt;" style="rounded=1;whiteSpace=wrap;html=1;align=left;verticalAlign=top;spacing=2;fillColor=#e1d5e7;strokeColor=#9673a6;fontSize=10;spacingLeft=3;" parent="KvFQF3NMjeuTZSuVZRX8-1" vertex="1">
          <mxGeometry x="400" y="560" width="160" height="120" as="geometry" />
        </mxCell>
        <mxCell id="wGoazCiD23fc3Q4HcZjO-8" value="ЛК B2B: 80, 443" style="rounded=1;whiteSpace=wrap;html=1;fontStyle=1;fontSize=9;" parent="KvFQF3NMjeuTZSuVZRX8-1" vertex="1">
          <mxGeometry x="425" y="610" width="110" height="30" as="geometry" />
        </mxCell>
        <mxCell id="wGoazCiD23fc3Q4HcZjO-9" value="" style="endArrow=classic;html=1;rounded=0;strokeColor=#0000FF;strokeWidth=2;align=center;verticalAlign=middle;fontFamily=Helvetica;fontSize=11;fontColor=default;labelBackgroundColor=default;entryX=0.5;entryY=0;entryDx=0;entryDy=0;edgeStyle=orthogonalEdgeStyle;exitX=0.25;exitY=1;exitDx=0;exitDy=0;" parent="KvFQF3NMjeuTZSuVZRX8-1" source="15ZeIRZycMTwp8MB8Msy-19" target="wGoazCiD23fc3Q4HcZjO-8" edge="1">
          <mxGeometry width="50" height="50" relative="1" as="geometry">
            <mxPoint x="730" y="540" as="sourcePoint" />
            <mxPoint x="210" y="850" as="targetPoint" />
            <Array as="points">
              <mxPoint x="693" y="490" />
              <mxPoint x="480" y="490" />
            </Array>
          </mxGeometry>
        </mxCell>
        <mxCell id="wGoazCiD23fc3Q4HcZjO-11" value="" style="endArrow=classic;html=1;rounded=0;strokeColor=#FF8000;strokeWidth=2;align=center;verticalAlign=middle;fontFamily=Helvetica;fontSize=11;fontColor=default;labelBackgroundColor=default;entryX=0.5;entryY=0;entryDx=0;entryDy=0;exitX=0.5;exitY=1;exitDx=0;exitDy=0;edgeStyle=orthogonalEdgeStyle;" parent="KvFQF3NMjeuTZSuVZRX8-1" source="15ZeIRZycMTwp8MB8Msy-24" target="wGoazCiD23fc3Q4HcZjO-0" edge="1">
          <mxGeometry width="50" height="50" relative="1" as="geometry">
            <mxPoint x="170" y="730" as="sourcePoint" />
            <mxPoint x="910" y="890" as="targetPoint" />
            <Array as="points">
              <mxPoint x="160" y="860" />
              <mxPoint x="600" y="860" />
            </Array>
          </mxGeometry>
        </mxCell>
        <mxCell id="wGoazCiD23fc3Q4HcZjO-12" value="" style="endArrow=classic;html=1;rounded=0;strokeColor=#0000FF;strokeWidth=2;align=center;verticalAlign=middle;fontFamily=Helvetica;fontSize=11;fontColor=default;labelBackgroundColor=default;entryX=0.5;entryY=0;entryDx=0;entryDy=0;edgeStyle=orthogonalEdgeStyle;exitX=0.25;exitY=1;exitDx=0;exitDy=0;" parent="KvFQF3NMjeuTZSuVZRX8-1" source="wGoazCiD23fc3Q4HcZjO-8" target="wGoazCiD23fc3Q4HcZjO-16" edge="1">
          <mxGeometry width="50" height="50" relative="1" as="geometry">
            <mxPoint x="730" y="540" as="sourcePoint" />
            <mxPoint x="210" y="930" as="targetPoint" />
            <Array as="points">
              <mxPoint x="453" y="820" />
              <mxPoint x="200" y="820" />
            </Array>
          </mxGeometry>
        </mxCell>
        <mxCell id="wGoazCiD23fc3Q4HcZjO-13" value="" style="endArrow=classicThin;html=1;rounded=0;strokeColor=#FF00FF;strokeWidth=2;align=center;verticalAlign=middle;fontFamily=Helvetica;fontSize=10;fontColor=#7EA6E0;labelBackgroundColor=default;jumpSize=6;startArrow=none;startFill=0;endFill=0;jumpStyle=gap;exitX=0.75;exitY=1;exitDx=0;exitDy=0;edgeStyle=orthogonalEdgeStyle;entryX=0;entryY=0.5;entryDx=0;entryDy=0;" parent="KvFQF3NMjeuTZSuVZRX8-1" source="wGoazCiD23fc3Q4HcZjO-8" target="NatxCWkyrvZNsPf3bx0Z-1" edge="1">
          <mxGeometry width="50" height="50" relative="1" as="geometry">
            <mxPoint x="810" y="515" as="sourcePoint" />
            <mxPoint x="1260" y="950" as="targetPoint" />
            <Array as="points">
              <mxPoint x="508" y="820" />
            </Array>
          </mxGeometry>
        </mxCell>
        <mxCell id="wGoazCiD23fc3Q4HcZjO-14" value="" style="endArrow=classicThin;html=1;rounded=0;strokeColor=#FF00FF;strokeWidth=2;align=center;verticalAlign=middle;fontFamily=Helvetica;fontSize=10;fontColor=#7EA6E0;labelBackgroundColor=default;jumpSize=6;startArrow=none;startFill=0;endFill=0;jumpStyle=gap;exitX=0.75;exitY=1;exitDx=0;exitDy=0;edgeStyle=orthogonalEdgeStyle;entryX=0;entryY=0.5;entryDx=0;entryDy=0;" parent="KvFQF3NMjeuTZSuVZRX8-1" source="15ZeIRZycMTwp8MB8Msy-19" target="NatxCWkyrvZNsPf3bx0Z-1" edge="1">
          <mxGeometry width="50" height="50" relative="1" as="geometry">
            <mxPoint x="518" y="690" as="sourcePoint" />
            <mxPoint x="1291" y="850" as="targetPoint" />
            <Array as="points">
              <mxPoint x="748" y="500" />
              <mxPoint x="860" y="500" />
              <mxPoint x="860" y="820" />
            </Array>
          </mxGeometry>
        </mxCell>
        <mxCell id="wGoazCiD23fc3Q4HcZjO-16" value="УЦС (1С)" style="rounded=1;whiteSpace=wrap;html=1;fontStyle=1;fontSize=9;" parent="KvFQF3NMjeuTZSuVZRX8-1" vertex="1">
          <mxGeometry x="145" y="970" width="110" height="30" as="geometry" />
        </mxCell>
        <mxCell id="wGoazCiD23fc3Q4HcZjO-17" value="Резолют" style="rounded=1;whiteSpace=wrap;html=1;fontStyle=1;fontSize=9;" parent="KvFQF3NMjeuTZSuVZRX8-1" vertex="1">
          <mxGeometry x="385" y="970" width="110" height="30" as="geometry" />
        </mxCell>
        <mxCell id="wGoazCiD23fc3Q4HcZjO-2" value="" style="endArrow=classic;html=1;rounded=0;strokeColor=#0000FF;strokeWidth=2;align=center;verticalAlign=middle;fontFamily=Helvetica;fontSize=11;fontColor=default;labelBackgroundColor=default;entryX=0.5;entryY=0;entryDx=0;entryDy=0;edgeStyle=orthogonalEdgeStyle;exitX=0.5;exitY=1;exitDx=0;exitDy=0;" parent="KvFQF3NMjeuTZSuVZRX8-1" source="15ZeIRZycMTwp8MB8Msy-19" target="wGoazCiD23fc3Q4HcZjO-17" edge="1">
          <mxGeometry width="50" height="50" relative="1" as="geometry">
            <mxPoint x="465" y="525" as="sourcePoint" />
            <mxPoint x="595" y="635" as="targetPoint" />
            <Array as="points">
              <mxPoint x="720" y="500" />
              <mxPoint x="580" y="500" />
              <mxPoint x="580" y="850" />
              <mxPoint x="440" y="850" />
            </Array>
          </mxGeometry>
        </mxCell>
        <mxCell id="15ZeIRZycMTwp8MB8Msy-23" value="" style="endArrow=classic;html=1;rounded=0;strokeColor=#FF8000;strokeWidth=2;align=center;verticalAlign=middle;fontFamily=Helvetica;fontSize=11;fontColor=default;labelBackgroundColor=default;exitX=1;exitY=0.5;exitDx=0;exitDy=0;edgeStyle=orthogonalEdgeStyle;entryX=0;entryY=0.25;entryDx=0;entryDy=0;" parent="KvFQF3NMjeuTZSuVZRX8-1" source="15ZeIRZycMTwp8MB8Msy-21" target="15ZeIRZycMTwp8MB8Msy-1" edge="1">
          <mxGeometry width="50" height="50" relative="1" as="geometry">
            <mxPoint x="170" y="290" as="sourcePoint" />
            <mxPoint x="280" y="450" as="targetPoint" />
            <Array as="points">
              <mxPoint x="260" y="450" />
              <mxPoint x="260" y="410" />
            </Array>
          </mxGeometry>
        </mxCell>
        <mxCell id="15ZeIRZycMTwp8MB8Msy-35" value="&lt;b style=&quot;font-size: 10px;&quot;&gt;oradb03&lt;br style=&quot;font-size: 10px;&quot;&gt;(172.18.34.5)&lt;/b&gt;" style="rounded=1;whiteSpace=wrap;html=1;align=left;verticalAlign=top;spacing=2;fillColor=#e1d5e7;strokeColor=#9673a6;movable=1;resizable=1;rotatable=1;deletable=1;editable=1;locked=0;connectable=1;fontSize=10;spacingLeft=3;" parent="KvFQF3NMjeuTZSuVZRX8-1" vertex="1">
          <mxGeometry x="680" y="920" width="160" height="160" as="geometry" />
        </mxCell>
        <mxCell id="15ZeIRZycMTwp8MB8Msy-36" value="БД ИТ ДМС: 1521" style="rounded=1;whiteSpace=wrap;html=1;fontStyle=1;fontSize=9;movable=1;resizable=1;rotatable=1;deletable=1;editable=1;locked=0;connectable=1;" parent="KvFQF3NMjeuTZSuVZRX8-1" vertex="1">
          <mxGeometry x="705" y="1020" width="110" height="30" as="geometry" />
        </mxCell>
        <mxCell id="vdJchYIwWAiRLiAFevXH-5" value="&lt;b style=&quot;font-size: 10px;&quot;&gt;shared-prod-db01&lt;/b&gt;&lt;br style=&quot;font-size: 10px;&quot;&gt;&lt;b style=&quot;font-size: 10px;&quot;&gt;(172.18.34.7)&lt;/b&gt;" style="rounded=1;whiteSpace=wrap;html=1;align=left;verticalAlign=top;spacing=2;fillColor=#e1d5e7;strokeColor=#9673a6;movable=1;resizable=1;rotatable=1;deletable=1;editable=1;locked=0;connectable=1;fontSize=10;spacingLeft=3;" parent="KvFQF3NMjeuTZSuVZRX8-1" vertex="1">
          <mxGeometry x="920" y="920" width="160" height="120" as="geometry" />
        </mxCell>
        <mxCell id="vdJchYIwWAiRLiAFevXH-6" value="БД tss-lk-dms: 5432" style="rounded=1;whiteSpace=wrap;html=1;fontStyle=1;fontSize=9;movable=1;resizable=1;rotatable=1;deletable=1;editable=1;locked=0;connectable=1;" parent="KvFQF3NMjeuTZSuVZRX8-1" vertex="1">
          <mxGeometry x="945" y="970" width="110" height="30" as="geometry" />
        </mxCell>
        <mxCell id="g3NlR58URRI_msszG5uJ-0" value="ConnectorITDMS: 8582" style="rounded=1;whiteSpace=wrap;html=1;fontStyle=1;fontSize=9;movable=1;resizable=1;rotatable=1;deletable=1;editable=1;locked=0;connectable=1;" parent="KvFQF3NMjeuTZSuVZRX8-1" vertex="1">
          <mxGeometry x="705" y="970" width="110" height="30" as="geometry" />
        </mxCell>
        <mxCell id="g3NlR58URRI_msszG5uJ-1" value="" style="endArrow=classicThin;html=1;rounded=0;strokeColor=#FF0000;strokeWidth=2;align=center;verticalAlign=middle;fontFamily=Helvetica;fontSize=10;fontColor=#7EA6E0;labelBackgroundColor=default;jumpSize=6;startArrow=none;startFill=0;endFill=0;jumpStyle=gap;exitX=0.5;exitY=1;exitDx=0;exitDy=0;entryX=0.5;entryY=0;entryDx=0;entryDy=0;" parent="KvFQF3NMjeuTZSuVZRX8-1" source="g3NlR58URRI_msszG5uJ-0" target="15ZeIRZycMTwp8MB8Msy-36" edge="1">
          <mxGeometry width="50" height="50" relative="1" as="geometry">
            <mxPoint x="1180" y="975.12" as="sourcePoint" />
            <mxPoint x="1200" y="914.8800000000002" as="targetPoint" />
          </mxGeometry>
        </mxCell>
        <mxCell id="15ZeIRZycMTwp8MB8Msy-41" value="" style="endArrow=classicThin;html=1;rounded=0;strokeColor=#FF0000;strokeWidth=2;align=center;verticalAlign=middle;fontFamily=Helvetica;fontSize=10;fontColor=#7EA6E0;labelBackgroundColor=default;jumpSize=6;startArrow=none;startFill=0;endFill=0;jumpStyle=gap;exitX=0.5;exitY=1;exitDx=0;exitDy=0;edgeStyle=orthogonalEdgeStyle;entryX=0.5;entryY=0;entryDx=0;entryDy=0;" parent="KvFQF3NMjeuTZSuVZRX8-1" source="15ZeIRZycMTwp8MB8Msy-39" target="vdJchYIwWAiRLiAFevXH-6" edge="1">
          <mxGeometry width="50" height="50" relative="1" as="geometry">
            <mxPoint x="1025" y="1175" as="sourcePoint" />
            <mxPoint x="345" y="860" as="targetPoint" />
            <Array as="points">
              <mxPoint x="960" y="850" />
              <mxPoint x="1000" y="850" />
            </Array>
          </mxGeometry>
        </mxCell>
        <mxCell id="15ZeIRZycMTwp8MB8Msy-43" value="" style="endArrow=classicThin;html=1;rounded=0;strokeColor=#0000FF;strokeWidth=2;align=center;verticalAlign=middle;fontFamily=Helvetica;fontSize=10;fontColor=#7EA6E0;labelBackgroundColor=default;jumpSize=6;startArrow=none;startFill=0;endFill=0;jumpStyle=gap;exitX=0.25;exitY=1;exitDx=0;exitDy=0;edgeStyle=orthogonalEdgeStyle;entryX=0.5;entryY=0;entryDx=0;entryDy=0;" parent="KvFQF3NMjeuTZSuVZRX8-1" source="15ZeIRZycMTwp8MB8Msy-39" target="g3NlR58URRI_msszG5uJ-0" edge="1">
          <mxGeometry width="50" height="50" relative="1" as="geometry">
            <mxPoint x="340" y="344.6600000000002" as="sourcePoint" />
            <mxPoint x="745" y="900" as="targetPoint" />
            <Array as="points">
              <mxPoint x="933" y="850" />
              <mxPoint x="760" y="850" />
            </Array>
          </mxGeometry>
        </mxCell>
      </root>
    </mxGraphModel>
  </diagram>
  <diagram name="Мониторинг" id="cP0t_tkk2o7CXWN-MPPs">
    <mxGraphModel dx="1701" dy="839" grid="1" gridSize="10" guides="1" tooltips="1" connect="1" arrows="1" fold="1" page="1" pageScale="1" pageWidth="827" pageHeight="1169" math="0" shadow="0">
      <root>
        <mxCell id="wckB5RBPu7A8hUNSO1tb-0" />
        <mxCell id="wckB5RBPu7A8hUNSO1tb-1" parent="wckB5RBPu7A8hUNSO1tb-0" />
        <mxCell id="wckB5RBPu7A8hUNSO1tb-3" value="&lt;div style=&quot;font-size: 11px;&quot;&gt;&lt;span style=&quot;background-color: initial; font-size: 11px;&quot;&gt;ЦОД ПСБС&lt;/span&gt;&lt;/div&gt;" style="rounded=1;align=center;verticalAlign=top;spacing=5;arcSize=5;labelPosition=center;verticalLabelPosition=middle;horizontal=1;html=1;labelBackgroundColor=none;whiteSpace=wrap;fontStyle=1;fillColor=#dae8fc;strokeColor=#6c8ebf;opacity=25;fontSize=11;strokeOpacity=100;imageHeight=24;imageWidth=24;absoluteArcSize=0;spacingLeft=5;" parent="wckB5RBPu7A8hUNSO1tb-1" vertex="1">
          <mxGeometry x="40" y="160" width="1080" height="640" as="geometry" />
        </mxCell>
        <mxCell id="wckB5RBPu7A8hUNSO1tb-4" value="Сеть DMZ Продуктивной среды&lt;div&gt;(192.168.6.160/27, vlan 3902)&lt;/div&gt;" style="rounded=1;whiteSpace=wrap;html=1;dashed=1;fillStyle=solid;fillColor=#D9D9D9;fontColor=#333333;strokeColor=#666666;glass=0;shadow=0;opacity=25;verticalAlign=top;fontStyle=1;fontSize=11;" parent="wckB5RBPu7A8hUNSO1tb-1" vertex="1">
          <mxGeometry x="600" y="600" width="200" height="160" as="geometry" />
        </mxCell>
        <mxCell id="wckB5RBPu7A8hUNSO1tb-5" value="" style="endArrow=classic;html=1;rounded=0;strokeColor=#87B369;strokeWidth=2;align=center;verticalAlign=middle;fontFamily=Helvetica;fontSize=11;fontColor=#000000;labelBackgroundColor=default;" parent="wckB5RBPu7A8hUNSO1tb-1" edge="1">
          <mxGeometry width="50" height="50" relative="1" as="geometry">
            <mxPoint x="660" y="20" as="sourcePoint" />
            <mxPoint x="700" y="19.760000000000183" as="targetPoint" />
          </mxGeometry>
        </mxCell>
        <mxCell id="wckB5RBPu7A8hUNSO1tb-6" value="" style="endArrow=classic;html=1;rounded=0;strokeColor=#0000FF;strokeWidth=2;align=center;verticalAlign=middle;fontFamily=Helvetica;fontSize=11;fontColor=default;labelBackgroundColor=default;" parent="wckB5RBPu7A8hUNSO1tb-1" edge="1">
          <mxGeometry width="50" height="50" relative="1" as="geometry">
            <mxPoint x="660" y="40" as="sourcePoint" />
            <mxPoint x="700" y="39.760000000000005" as="targetPoint" />
          </mxGeometry>
        </mxCell>
        <mxCell id="wckB5RBPu7A8hUNSO1tb-7" value="" style="endArrow=classic;html=1;rounded=0;strokeColor=#FF8000;strokeWidth=2;align=center;verticalAlign=middle;fontFamily=Helvetica;fontSize=10;fontColor=#7EA6E0;labelBackgroundColor=default;jumpSize=6;startArrow=none;startFill=0;endFill=1;" parent="wckB5RBPu7A8hUNSO1tb-1" edge="1">
          <mxGeometry width="50" height="50" relative="1" as="geometry">
            <mxPoint x="660" y="60" as="sourcePoint" />
            <mxPoint x="700" y="59.760000000000005" as="targetPoint" />
          </mxGeometry>
        </mxCell>
        <mxCell id="wckB5RBPu7A8hUNSO1tb-8" value="" style="endArrow=classicThin;html=1;rounded=0;strokeColor=#FF0000;strokeWidth=2;align=center;verticalAlign=middle;fontFamily=Helvetica;fontSize=10;fontColor=#7EA6E0;labelBackgroundColor=default;jumpSize=6;startArrow=none;startFill=0;endFill=0;jumpStyle=gap;" parent="wckB5RBPu7A8hUNSO1tb-1" edge="1">
          <mxGeometry width="50" height="50" relative="1" as="geometry">
            <mxPoint x="660" y="80" as="sourcePoint" />
            <mxPoint x="700" y="79.76000000000022" as="targetPoint" />
          </mxGeometry>
        </mxCell>
        <mxCell id="wckB5RBPu7A8hUNSO1tb-9" value="RDP" style="text;html=1;align=left;verticalAlign=middle;whiteSpace=wrap;rounded=0;fontSize=10;fontStyle=1" parent="wckB5RBPu7A8hUNSO1tb-1" vertex="1">
          <mxGeometry x="707" y="10" width="113" height="20" as="geometry" />
        </mxCell>
        <mxCell id="wckB5RBPu7A8hUNSO1tb-10" value="HTTP(S)" style="text;html=1;align=left;verticalAlign=middle;whiteSpace=wrap;rounded=0;fontSize=10;fontStyle=1" parent="wckB5RBPu7A8hUNSO1tb-1" vertex="1">
          <mxGeometry x="707" y="30" width="113" height="20" as="geometry" />
        </mxCell>
        <mxCell id="wckB5RBPu7A8hUNSO1tb-11" value="SSH+HTTP(S)" style="text;html=1;align=left;verticalAlign=middle;whiteSpace=wrap;rounded=0;fontSize=10;fontStyle=1" parent="wckB5RBPu7A8hUNSO1tb-1" vertex="1">
          <mxGeometry x="707" y="50" width="113" height="20" as="geometry" />
        </mxCell>
        <mxCell id="wckB5RBPu7A8hUNSO1tb-12" value="PGSQL, OracleDB" style="text;html=1;align=left;verticalAlign=middle;whiteSpace=wrap;rounded=0;fontSize=10;fontStyle=1" parent="wckB5RBPu7A8hUNSO1tb-1" vertex="1">
          <mxGeometry x="707" y="70" width="113" height="20" as="geometry" />
        </mxCell>
        <mxCell id="wckB5RBPu7A8hUNSO1tb-13" value="WAF" style="sketch=0;pointerEvents=1;shadow=0;dashed=0;html=1;strokeColor=none;fillColor=#434445;labelPosition=center;verticalLabelPosition=bottom;verticalAlign=top;align=center;outlineConnect=0;shape=mxgraph.vvd.logical_firewall;fontStyle=1;fontSize=10;" parent="wckB5RBPu7A8hUNSO1tb-1" vertex="1">
          <mxGeometry x="519.75" y="200" width="40" height="40" as="geometry" />
        </mxCell>
        <mxCell id="wckB5RBPu7A8hUNSO1tb-15" value="" style="rounded=1;whiteSpace=wrap;html=1;dashed=1;fillStyle=solid;fillColor=#D9D9D9;fontColor=#333333;strokeColor=#666666;glass=0;shadow=0;opacity=50;verticalAlign=top;fontStyle=1;fontSize=11;" parent="wckB5RBPu7A8hUNSO1tb-1" vertex="1">
          <mxGeometry x="80" y="360" width="160" height="160" as="geometry" />
        </mxCell>
        <mxCell id="wckB5RBPu7A8hUNSO1tb-16" value="VPN" style="sketch=0;pointerEvents=1;shadow=0;dashed=0;html=1;strokeColor=none;fillColor=#434445;labelPosition=center;verticalLabelPosition=bottom;verticalAlign=top;align=center;outlineConnect=0;shape=mxgraph.vvd.logical_firewall;fontStyle=1;fontSize=10;" parent="wckB5RBPu7A8hUNSO1tb-1" vertex="1">
          <mxGeometry x="140" y="200" width="40" height="40" as="geometry" />
        </mxCell>
        <mxCell id="wckB5RBPu7A8hUNSO1tb-17" value="&lt;b style=&quot;font-size: 10px;&quot;&gt;Пользователи&lt;/b&gt;" style="sketch=0;pointerEvents=1;shadow=0;dashed=0;html=1;strokeColor=none;fillColor=#434445;aspect=fixed;labelPosition=center;verticalLabelPosition=bottom;verticalAlign=top;align=center;outlineConnect=0;shape=mxgraph.vvd.user_group;fontSize=10;" parent="wckB5RBPu7A8hUNSO1tb-1" vertex="1">
          <mxGeometry x="522.25" y="40" width="35" height="49.29" as="geometry" />
        </mxCell>
        <mxCell id="wckB5RBPu7A8hUNSO1tb-18" value="&lt;b style=&quot;font-size: 10px;&quot;&gt;Операторы&lt;/b&gt;" style="sketch=0;pointerEvents=1;shadow=0;dashed=0;html=1;strokeColor=none;fillColor=#434445;aspect=fixed;labelPosition=center;verticalLabelPosition=bottom;verticalAlign=top;align=center;outlineConnect=0;shape=mxgraph.vvd.user_group;fontSize=10;" parent="wckB5RBPu7A8hUNSO1tb-1" vertex="1">
          <mxGeometry x="142.25" y="40" width="35.5" height="50" as="geometry" />
        </mxCell>
        <mxCell id="wckB5RBPu7A8hUNSO1tb-19" value="" style="endArrow=classic;html=1;rounded=0;strokeColor=default;strokeWidth=2;align=center;verticalAlign=middle;fontFamily=Helvetica;fontSize=11;fontColor=default;labelBackgroundColor=default;" parent="wckB5RBPu7A8hUNSO1tb-1" source="wckB5RBPu7A8hUNSO1tb-18" target="wckB5RBPu7A8hUNSO1tb-16" edge="1">
          <mxGeometry width="50" height="50" relative="1" as="geometry">
            <mxPoint x="430" y="100" as="sourcePoint" />
            <mxPoint x="430" y="250" as="targetPoint" />
          </mxGeometry>
        </mxCell>
        <mxCell id="wckB5RBPu7A8hUNSO1tb-23" value="&lt;b style=&quot;font-size: 10px;&quot;&gt;&amp;nbsp;jump сервер&lt;br style=&quot;font-size: 10px;&quot;&gt;&lt;/b&gt;&lt;div&gt;&lt;b style=&quot;font-size: 10px;&quot;&gt;(172.18.23.67)&lt;/b&gt;&lt;/div&gt;" style="rounded=1;whiteSpace=wrap;html=1;align=center;verticalAlign=middle;spacing=2;fillColor=#e1d5e7;strokeColor=#9673a6;fontSize=10;spacingLeft=3;" parent="wckB5RBPu7A8hUNSO1tb-1" vertex="1">
          <mxGeometry x="120" y="410" width="80" height="80" as="geometry" />
        </mxCell>
        <mxCell id="wckB5RBPu7A8hUNSO1tb-24" value="" style="endArrow=classic;html=1;rounded=0;strokeColor=#87B369;strokeWidth=2;align=center;verticalAlign=middle;fontFamily=Helvetica;fontSize=11;fontColor=default;labelBackgroundColor=default;entryX=0.5;entryY=0;entryDx=0;entryDy=0;" parent="wckB5RBPu7A8hUNSO1tb-1" source="wckB5RBPu7A8hUNSO1tb-16" target="wckB5RBPu7A8hUNSO1tb-23" edge="1">
          <mxGeometry width="50" height="50" relative="1" as="geometry">
            <mxPoint x="190" y="100" as="sourcePoint" />
            <mxPoint x="190" y="250" as="targetPoint" />
          </mxGeometry>
        </mxCell>
        <mxCell id="wckB5RBPu7A8hUNSO1tb-25" value="Офисная сеть" style="rounded=1;whiteSpace=wrap;html=1;dashed=1;fillStyle=solid;fillColor=#D9D9D9;fontColor=#333333;strokeColor=#666666;glass=0;shadow=0;opacity=50;verticalAlign=top;fontStyle=1;fontSize=11;" parent="wckB5RBPu7A8hUNSO1tb-1" vertex="1">
          <mxGeometry x="80" y="598" width="160" height="160" as="geometry" />
        </mxCell>
        <mxCell id="wckB5RBPu7A8hUNSO1tb-26" value="&lt;b style=&quot;font-size: 10px;&quot;&gt;Операторы&lt;/b&gt;" style="sketch=0;pointerEvents=1;shadow=0;dashed=0;html=1;strokeColor=none;fillColor=#434445;aspect=fixed;labelPosition=center;verticalLabelPosition=bottom;verticalAlign=top;align=center;outlineConnect=0;shape=mxgraph.vvd.user_group;fontSize=10;" parent="wckB5RBPu7A8hUNSO1tb-1" vertex="1">
          <mxGeometry x="142.25" y="653" width="35.5" height="50" as="geometry" />
        </mxCell>
        <mxCell id="wckB5RBPu7A8hUNSO1tb-27" value="" style="endArrow=classic;html=1;rounded=0;strokeColor=#87B369;strokeWidth=2;align=center;verticalAlign=middle;fontFamily=Helvetica;fontSize=11;fontColor=default;labelBackgroundColor=default;entryX=0.5;entryY=1;entryDx=0;entryDy=0;" parent="wckB5RBPu7A8hUNSO1tb-1" source="wckB5RBPu7A8hUNSO1tb-26" target="wckB5RBPu7A8hUNSO1tb-23" edge="1">
          <mxGeometry width="50" height="50" relative="1" as="geometry">
            <mxPoint x="170" y="290" as="sourcePoint" />
            <mxPoint x="170" y="420" as="targetPoint" />
          </mxGeometry>
        </mxCell>
        <mxCell id="wckB5RBPu7A8hUNSO1tb-39" value="" style="endArrow=classicThin;html=1;rounded=0;strokeColor=#FF00FF;strokeWidth=2;align=center;verticalAlign=middle;fontFamily=Helvetica;fontSize=10;fontColor=#7EA6E0;labelBackgroundColor=default;jumpSize=6;startArrow=none;startFill=0;endFill=0;jumpStyle=gap;" parent="wckB5RBPu7A8hUNSO1tb-1" edge="1">
          <mxGeometry width="50" height="50" relative="1" as="geometry">
            <mxPoint x="660" y="100" as="sourcePoint" />
            <mxPoint x="700" y="99.76000000000022" as="targetPoint" />
          </mxGeometry>
        </mxCell>
        <mxCell id="wckB5RBPu7A8hUNSO1tb-40" value="SMTP" style="text;html=1;align=left;verticalAlign=middle;whiteSpace=wrap;rounded=0;fontSize=10;fontStyle=1" parent="wckB5RBPu7A8hUNSO1tb-1" vertex="1">
          <mxGeometry x="707" y="90" width="113" height="20" as="geometry" />
        </mxCell>
        <mxCell id="wckB5RBPu7A8hUNSO1tb-42" value="Прочие сети" style="rounded=1;whiteSpace=wrap;html=1;dashed=1;fillStyle=solid;fillColor=#D9D9D9;fontColor=#333333;strokeColor=#666666;glass=0;shadow=0;opacity=25;verticalAlign=top;fontStyle=1;fontSize=11;" parent="wckB5RBPu7A8hUNSO1tb-1" vertex="1">
          <mxGeometry x="879.75" y="600" width="200" height="160" as="geometry" />
        </mxCell>
        <mxCell id="wckB5RBPu7A8hUNSO1tb-44" value="" style="endArrow=classic;html=1;rounded=0;strokeColor=#FF8000;strokeWidth=2;align=center;verticalAlign=middle;fontFamily=Helvetica;fontSize=11;fontColor=default;labelBackgroundColor=default;entryX=0;entryY=0.75;entryDx=0;entryDy=0;exitX=1;exitY=0.5;exitDx=0;exitDy=0;edgeStyle=orthogonalEdgeStyle;" parent="wckB5RBPu7A8hUNSO1tb-1" source="wckB5RBPu7A8hUNSO1tb-25" target="k_kww5bb9kHMw6BgIyrN-2" edge="1">
          <mxGeometry width="50" height="50" relative="1" as="geometry">
            <mxPoint x="170" y="730" as="sourcePoint" />
            <mxPoint x="480" y="810" as="targetPoint" />
            <Array as="points">
              <mxPoint x="280" y="678" />
              <mxPoint x="280" y="480" />
            </Array>
          </mxGeometry>
        </mxCell>
        <mxCell id="wckB5RBPu7A8hUNSO1tb-56" value="" style="endArrow=classic;html=1;rounded=0;strokeColor=#FF8000;strokeWidth=2;align=center;verticalAlign=middle;fontFamily=Helvetica;fontSize=11;fontColor=default;labelBackgroundColor=default;exitX=1;exitY=0.5;exitDx=0;exitDy=0;edgeStyle=orthogonalEdgeStyle;entryX=0;entryY=0.5;entryDx=0;entryDy=0;" parent="wckB5RBPu7A8hUNSO1tb-1" source="wckB5RBPu7A8hUNSO1tb-23" target="k_kww5bb9kHMw6BgIyrN-2" edge="1">
          <mxGeometry width="50" height="50" relative="1" as="geometry">
            <mxPoint x="170" y="290" as="sourcePoint" />
            <mxPoint x="280" y="450" as="targetPoint" />
            <Array as="points" />
          </mxGeometry>
        </mxCell>
        <mxCell id="k_kww5bb9kHMw6BgIyrN-1" value="Сеть DMZ Продуктивной среды&lt;div&gt;(192.168.6.160/27, vlan 3902)&lt;/div&gt;" style="rounded=1;whiteSpace=wrap;html=1;dashed=1;fillStyle=solid;fillColor=#D9D9D9;fontColor=#333333;strokeColor=#666666;glass=0;shadow=0;opacity=25;verticalAlign=top;fontStyle=1;fontSize=11;" parent="wckB5RBPu7A8hUNSO1tb-1" vertex="1">
          <mxGeometry x="320" y="600" width="200" height="160" as="geometry" />
        </mxCell>
        <mxCell id="k_kww5bb9kHMw6BgIyrN-2" value="Сеть системы мониторинга&lt;div&gt;&amp;nbsp;(новая)&lt;/div&gt;" style="rounded=1;whiteSpace=wrap;html=1;dashed=1;fillStyle=solid;fillColor=#D9D9D9;fontColor=#333333;strokeColor=#666666;glass=0;shadow=0;opacity=25;verticalAlign=top;fontStyle=1;fontSize=11;" parent="wckB5RBPu7A8hUNSO1tb-1" vertex="1">
          <mxGeometry x="600" y="360" width="200" height="160" as="geometry" />
        </mxCell>
        <mxCell id="k_kww5bb9kHMw6BgIyrN-3" value="" style="endArrow=classicThin;html=1;rounded=0;strokeColor=#00FFFF;strokeWidth=2;align=center;verticalAlign=middle;fontFamily=Helvetica;fontSize=10;fontColor=#7EA6E0;labelBackgroundColor=default;jumpSize=6;startArrow=none;startFill=0;endFill=0;jumpStyle=gap;" parent="wckB5RBPu7A8hUNSO1tb-1" edge="1">
          <mxGeometry width="50" height="50" relative="1" as="geometry">
            <mxPoint x="660" y="120" as="sourcePoint" />
            <mxPoint x="700" y="119.76000000000022" as="targetPoint" />
          </mxGeometry>
        </mxCell>
        <mxCell id="k_kww5bb9kHMw6BgIyrN-4" value="Мониторинг (агенты)" style="text;html=1;align=left;verticalAlign=middle;whiteSpace=wrap;rounded=0;fontSize=10;fontStyle=1" parent="wckB5RBPu7A8hUNSO1tb-1" vertex="1">
          <mxGeometry x="707" y="110" width="113" height="20" as="geometry" />
        </mxCell>
        <mxCell id="k_kww5bb9kHMw6BgIyrN-6" value="" style="endArrow=classicThin;html=1;rounded=0;strokeColor=#00FFFF;strokeWidth=2;align=center;verticalAlign=middle;fontFamily=Helvetica;fontSize=10;fontColor=#7EA6E0;labelBackgroundColor=default;jumpSize=6;startArrow=none;startFill=0;endFill=0;jumpStyle=gap;exitX=0.5;exitY=1;exitDx=0;exitDy=0;entryX=0.5;entryY=0;entryDx=0;entryDy=0;" parent="wckB5RBPu7A8hUNSO1tb-1" source="k_kww5bb9kHMw6BgIyrN-2" target="k_kww5bb9kHMw6BgIyrN-1" edge="1">
          <mxGeometry width="50" height="50" relative="1" as="geometry">
            <mxPoint x="670" y="130" as="sourcePoint" />
            <mxPoint x="710" y="129.76000000000022" as="targetPoint" />
          </mxGeometry>
        </mxCell>
        <mxCell id="k_kww5bb9kHMw6BgIyrN-7" value="" style="endArrow=classicThin;html=1;rounded=0;strokeColor=#00FFFF;strokeWidth=2;align=center;verticalAlign=middle;fontFamily=Helvetica;fontSize=10;fontColor=#7EA6E0;labelBackgroundColor=default;jumpSize=6;startArrow=none;startFill=0;endFill=0;jumpStyle=gap;exitX=0.5;exitY=1;exitDx=0;exitDy=0;entryX=0.5;entryY=0;entryDx=0;entryDy=0;" parent="wckB5RBPu7A8hUNSO1tb-1" source="k_kww5bb9kHMw6BgIyrN-2" target="wckB5RBPu7A8hUNSO1tb-4" edge="1">
          <mxGeometry width="50" height="50" relative="1" as="geometry">
            <mxPoint x="710" y="530" as="sourcePoint" />
            <mxPoint x="430" y="610" as="targetPoint" />
          </mxGeometry>
        </mxCell>
        <mxCell id="k_kww5bb9kHMw6BgIyrN-8" value="" style="endArrow=classicThin;html=1;rounded=0;strokeColor=#00FFFF;strokeWidth=2;align=center;verticalAlign=middle;fontFamily=Helvetica;fontSize=10;fontColor=#7EA6E0;labelBackgroundColor=default;jumpSize=6;startArrow=none;startFill=0;endFill=0;jumpStyle=gap;exitX=0.5;exitY=1;exitDx=0;exitDy=0;entryX=0.5;entryY=0;entryDx=0;entryDy=0;" parent="wckB5RBPu7A8hUNSO1tb-1" source="k_kww5bb9kHMw6BgIyrN-2" target="wckB5RBPu7A8hUNSO1tb-42" edge="1">
          <mxGeometry width="50" height="50" relative="1" as="geometry">
            <mxPoint x="710" y="530" as="sourcePoint" />
            <mxPoint x="710" y="610" as="targetPoint" />
          </mxGeometry>
        </mxCell>
        <mxCell id="W8V7G5lcrmZG-4ysKPHg-0" value="Репозитории" style="ellipse;shape=cloud;whiteSpace=wrap;html=1;fontSize=10;fontStyle=1" parent="wckB5RBPu7A8hUNSO1tb-1" vertex="1">
          <mxGeometry x="1160" y="400" width="200" height="80" as="geometry" />
        </mxCell>
        <mxCell id="W8V7G5lcrmZG-4ysKPHg-1" value="" style="endArrow=classic;html=1;rounded=0;strokeColor=#0000FF;strokeWidth=2;align=center;verticalAlign=middle;fontFamily=Helvetica;fontSize=11;fontColor=default;labelBackgroundColor=default;exitX=1;exitY=0.5;exitDx=0;exitDy=0;" parent="wckB5RBPu7A8hUNSO1tb-1" source="k_kww5bb9kHMw6BgIyrN-2" target="W8V7G5lcrmZG-4ysKPHg-0" edge="1">
          <mxGeometry width="50" height="50" relative="1" as="geometry">
            <mxPoint x="670" y="50" as="sourcePoint" />
            <mxPoint x="710" y="49.760000000000005" as="targetPoint" />
          </mxGeometry>
        </mxCell>
        <mxCell id="EteO3K5RmzrRcnAfyzQL-0" value="&lt;b&gt;monitoring-www&lt;/b&gt;&lt;div&gt;&lt;b&gt;(172.18.14.3)&lt;/b&gt;&lt;/div&gt;" style="rounded=1;whiteSpace=wrap;html=1;align=center;verticalAlign=middle;spacing=2;fillColor=#e1d5e7;strokeColor=#9673a6;fontSize=10;spacingLeft=3;" vertex="1" parent="wckB5RBPu7A8hUNSO1tb-1">
          <mxGeometry x="660" y="410" width="80" height="80" as="geometry" />
        </mxCell>
      </root>
    </mxGraphModel>
  </diagram>
</mxfile>
